<?xml version="1.0" encoding="UTF-8" standalone="no"?>
<!-- Created with Inkscape (http://www.inkscape.org/) -->

<svg
   xmlns:dc="http://purl.org/dc/elements/1.1/"
   xmlns:cc="http://creativecommons.org/ns#"
   xmlns:rdf="http://www.w3.org/1999/02/22-rdf-syntax-ns#"
   xmlns:svg="http://www.w3.org/2000/svg"
   xmlns="http://www.w3.org/2000/svg"
   xmlns:sodipodi="http://sodipodi.sourceforge.net/DTD/sodipodi-0.dtd"
   xmlns:inkscape="http://www.inkscape.org/namespaces/inkscape"
   width="1920px"
   height="400px"
   viewBox="0 0 1920 400"
   version="1.1"
   id="SVGRoot"
   inkscape:version="0.92.5 (2060ec1f9f, 2020-04-08)"
   sodipodi:docname="divider.svg">
  <defs
     id="defs2371" />
  <sodipodi:namedview
     id="base"
     pagecolor="#ffffff"
     bordercolor="#666666"
     borderopacity="1.0"
     inkscape:pageopacity="0.0"
     inkscape:pageshadow="2"
     inkscape:zoom="0.35"
     inkscape:cx="960"
     inkscape:cy="200"
     inkscape:document-units="px"
     inkscape:current-layer="layer1"
     showgrid="false"
     inkscape:window-width="1866"
     inkscape:window-height="1043"
     inkscape:window-x="1420"
     inkscape:window-y="0"
     inkscape:window-maximized="1" />
  <metadata
     id="metadata2374">
    <rdf:RDF>
      <cc:Work
         rdf:about="">
        <dc:format>image/svg+xml</dc:format>
        <dc:type
           rdf:resource="http://purl.org/dc/dcmitype/StillImage" />
        <dc:title></dc:title>
      </cc:Work>
    </rdf:RDF>
  </metadata>
  <g
     inkscape:label="Calque 1"
     inkscape:groupmode="layer"
     id="layer1">
    <path
       d="m 906.6485,392.80393 c -81.25709,0 -145.22946,-28.61775 -180.69167,-81.02436 -25.95692,-38.3517 -34.87964,-85.41375 -42.75713,-126.93329 -4.63826,-24.47699 -12.16184,-64.15496 -22.70145,-78.00076 -59.35584,-7.553572 -86.45603,-4.50474 -139.23016,134.07966 -17.82904,46.83506 -58.9421,82.09831 -118.88591,101.98047 C 268.74305,387.23249 87.599595,339.5902 67.380606,334.01151 L 124.8964,242.6658 96.13579,288.3405 124.73308,242.62616 c 35.14641,9.57171 149.33419,32.27202 210.85676,11.74477 14.07814,-4.69577 31.42272,-13.2151 40.72108,-37.63456 C 405.02797,141.32318 432.04108,87.446252 477.92849,51.916294 555.3312,-8.004142 663.12771,6.2632597 698.55176,10.95186 c 35.5983,4.710174 83.33668,21.302111 108.64581,73.578886 12.57021,25.972644 18.28637,56.096874 24.32922,87.986944 6.89749,36.34803 14.02367,73.93215 30.85105,98.80201 14.55722,21.50386 28.69534,22.88777 46.9654,22.49487 73.72793,-1.5784 91.06706,-24.35082 116.38176,-107.6132 10.3054,-33.87219 20.9538,-68.89761 46.1486,-98.419946 34.4441,-40.359056 90.343,-62.504455 161.6485,-64.036064 183.2503,-3.953403 230.2809,85.10024 261.3226,144.02254 25.7991,48.9649 42.9041,77.12866 94.3988,86.64636 160.5923,29.68453 241.414,4.15158 242.2088,3.89567 -1.0555,0.34633 -1.5789,0.55878 -1.5789,0.55878 l 72.8896,86.40486 c -12.8911,4.76422 -132.327,45.37548 -353.7234,4.45429 -129.2241,-23.88604 -167.441,-96.4126 -195.3467,-149.37055 -33.851,-64.25948 -48.6367,-79.08557 -115.3202,-77.70166 -32.8382,0.70283 -44.0419,10.55547 -66.0956,83.07492 -11.3834,37.43638 -24.2856,79.86754 -57.7607,115.22815 -43.2689,45.70339 -110.6764,69.84531 -200.34436,71.76255 -2.52058,0.0617 -5.0357,0.0816 -7.52354,0.0816"
       style="fill:#109eb3;fill-opacity:0.97607655;fill-rule:nonzero;stroke:none;stroke-width:0.44293457"
       id="path684"
       inkscape:connector-curvature="0" />
    <path
       d="M 186.09777,255.24672 C 159.62364,251.05906 62.241471,222.73676 49.78018,219.34194 L 37.133778,277.93261 24.48738,328.15168 c 8.590633,2.37132 89.1454,18.17402 139.81266,25.45012 7.08261,-32.80193 14.54091,-65.57124 21.79773,-98.35508"
       style="fill:#283845;fill-opacity:0.99521532;fill-rule:nonzero;stroke:none;stroke-width:0.44293457"
       id="path686"
       inkscape:connector-curvature="0" />
    <path
       d="m 365.90743,234.92479 c -9.15135,11.04205 -20.5184,16.17749 -30.31759,19.44614 -4.41508,1.47401 -9.1187,2.69566 -14.02374,3.74441 -7.59439,34.24698 -15.41193,68.4759 -22.74498,102.74448 35.33149,-1.79466 70.86446,-7.11031 103.56106,-17.95417 34.51491,-11.44924 62.74205,-28.0232 83.91916,-48.93969 -32.97428,-25.16541 -74.81678,-45.53045 -120.39391,-59.04117"
       style="fill:#283845;fill-opacity:0.99521532;fill-rule:nonzero;stroke:none;stroke-width:0.44293457"
       id="path688"
       inkscape:connector-curvature="0" />
    <path
       d="m 499.82969,37.299315 c -7.49637,4.30287 -14.82944,9.142776 -21.9012,14.616979 -30.58435,23.68069 -52.77408,55.570756 -72.68274,96.502786 47.45527,12.8259 92.96707,30.40527 132.22917,52.40296 16.55512,-38.30125 30.79119,-61.99635 45.09801,-76.32145 C 555.17878,95.352949 528.19835,66.032389 499.82969,37.299315"
       style="fill:#283845;fill-opacity:0.99521532;fill-rule:nonzero;stroke:none;stroke-width:0.44293457"
       id="path690"
       inkscape:connector-curvature="0" />
    <path
       d="m 688.1701,210.23879 c 23.37105,-10.75379 46.76391,-21.48955 69.3946,-32.93525 22.7123,-11.48171 45.22326,-23.21934 68.01718,-34.70107 -4.47491,-20.76875 -9.83177,-40.39499 -18.38431,-58.071724 C 785.47604,39.663381 747.2374,21.092912 714.32846,13.748356 702.5586,49.710747 684.89821,84.610028 667.0637,119.48405 c 7.16433,18.11998 12.52664,46.3198 16.136,65.36223 1.56786,8.27793 3.19021,16.78654 4.9704,25.39251"
       style="fill:#283845;fill-opacity:0.99521532;fill-rule:nonzero;stroke:none;stroke-width:0.44293457"
       id="path692"
       inkscape:connector-curvature="0" />
    <path
       d="m 949.31839,289.54408 c -11.19818,2.62724 -24.30195,3.93542 -39.97515,4.27049 -17.03978,0.36369 -30.48092,-0.82849 -44.0256,-18.4298 -38.64691,21.21199 -78.24652,41.68166 -117.01866,62.78547 37.1934,35.53353 92.00347,54.63369 158.34952,54.63369 2.48784,0 5.00296,-0.0199 7.52354,-0.0816 49.73084,-1.06302 92.58596,-8.99138 128.29856,-23.6157 -33.5677,-25.22661 -65.26802,-51.46955 -93.15221,-79.56121"
       style="fill:#283845;fill-opacity:0.99521532;fill-rule:nonzero;stroke:none;stroke-width:0.44293457"
       id="path694"
       inkscape:connector-curvature="0" />
    <path
       d="m 1399.1556,271.06739 c 15.7495,-16.27117 32.419,-32.19637 47.5969,-48.38468 14.835,-15.82076 29.8112,-32.65409 46.9816,-48.23337 0.9478,-1.10635 1.949,-2.19112 2.9126,-3.29032 -0.5984,-1.13871 -1.1928,-2.23076 -1.802,-3.39112 -21.5746,-40.94646 -50.9123,-96.409041 -128.266,-125.134967 -7.676,31.072013 -17.1539,61.953017 -28.619,92.502497 -2.7765,7.39135 -5.7706,15.1576 -9.1514,23.02108 7.8394,10.84032 15.6516,24.67885 24.8846,42.2006 11.514,21.83903 24.7919,47.00086 45.4627,70.71028"
       style="fill:#283845;fill-opacity:0.99521532;fill-rule:nonzero;stroke:none;stroke-width:0.44293457"
       id="path696"
       inkscape:connector-curvature="0" />
    <path
       d="m 1668.8021,327.50299 c 2.1612,-20.51643 2.4715,-41.07975 3.495,-61.62509 -21.5311,-1.91356 -45.1853,-4.88669 -71.0768,-9.34464 -12.9949,12.26373 -26.4905,23.81031 -37.226,34.26139 -17.018,16.57387 -34.27,33.33161 -51.032,50.35595 11.182,3.29389 23.1532,6.18776 36.0773,8.57706 41.211,7.61843 78.8835,12.40429 113.001,15.12878 2.6728,-12.41871 5.4494,-24.8374 6.7615,-37.35345"
       style="fill:#283845;fill-opacity:0.99521532;fill-rule:nonzero;stroke:none;stroke-width:0.44293457"
       id="path698"
       inkscape:connector-curvature="0" />
    <path
       d="m 1758.1598,268.2384 c 2.4388,33.18386 -4.5621,66.22361 -7.7468,99.39653 92.9452,-1.88116 144.1624,-19.33795 152.35,-22.36154 l -72.8896,-86.40487 c 0,0 0.5236,-0.21243 1.5789,-0.55877 -0.4343,0.14096 -24.8846,7.85265 -73.2925,9.92845"
       style="fill:#283845;fill-opacity:0.99521532;fill-rule:nonzero;stroke:none;stroke-width:0.44293457"
       id="path700"
       inkscape:connector-curvature="0" />
    <path
       d="m 1202.4152,99.623457 c -8.5798,-23.460758 -20.2408,-46.020587 -26.6539,-69.38766 -44.0091,9.413179 -79.3952,28.84851 -103.8877,57.545627 -19.9903,23.424696 -30.813,50.312736 -39.5887,77.341256 45.6696,17.51808 90.6153,35.86147 135.9637,53.73636 1.3829,-4.42903 2.7166,-8.81486 4.0285,-13.12868 14.2089,-46.73413 23.9265,-67.42361 37.8195,-76.42951 -1.8182,-9.96811 -4.0992,-19.88583 -7.6814,-29.677393"
       style="fill:#283845;fill-opacity:0.99521532;fill-rule:nonzero;stroke:none;stroke-width:0.44293457"
       id="path702"
       inkscape:connector-curvature="0" />
    <path
       d="m 44.668277,312.83912 57.227243,-24.78343 -40.628514,-36.41638 -4.028564,14.85489 -28.602736,-3.40208 -8.541622,31.4973 28.602736,3.39839 -4.028543,14.85131"
       style="fill:#ffb735;fill-opacity:1;fill-rule:nonzero;stroke:none;stroke-width:0.44293457"
       id="path704"
       inkscape:connector-curvature="0" />
    <path
       d="m 1865.5043,332.00772 36.9376,-38.09578 -59.5573,-22.25349 5.4876,14.64946 -28.2054,4.6309 11.6447,31.0576 28.2,-4.63457 5.4928,14.64588"
       style="fill:#ffb735;fill-opacity:1;fill-rule:nonzero;stroke:none;stroke-width:0.44293457"
       id="path706"
       inkscape:connector-curvature="0" />
  </g>
</svg>
