<?xml version="1.0" encoding="UTF-8" standalone="no"?>
<!-- Created with Inkscape (http://www.inkscape.org/) -->

<svg
   xmlns:dc="http://purl.org/dc/elements/1.1/"
   xmlns:cc="http://creativecommons.org/ns#"
   xmlns:rdf="http://www.w3.org/1999/02/22-rdf-syntax-ns#"
   xmlns:svg="http://www.w3.org/2000/svg"
   xmlns="http://www.w3.org/2000/svg"
   xmlns:sodipodi="http://sodipodi.sourceforge.net/DTD/sodipodi-0.dtd"
   xmlns:inkscape="http://www.inkscape.org/namespaces/inkscape"
   version="1.1"
   id="svg2"
   xml:space="preserve"
   width="4266.6665"
   height="2666.6667"
   viewBox="0 0 4266.6665 2666.6667"
   sodipodi:docname="hero.svg"
   inkscape:version="0.92.5 (2060ec1f9f, 2020-04-08)"><metadata
     id="metadata8"><rdf:RDF><cc:Work
         rdf:about=""><dc:format>image/svg+xml</dc:format><dc:type
           rdf:resource="http://purl.org/dc/dcmitype/StillImage" /><dc:title></dc:title></cc:Work></rdf:RDF></metadata><defs
     id="defs6" /><sodipodi:namedview
     pagecolor="#ffffff"
     bordercolor="#666666"
     borderopacity="1"
     objecttolerance="10"
     gridtolerance="10"
     guidetolerance="10"
     inkscape:pageopacity="0"
     inkscape:pageshadow="2"
     inkscape:window-width="1866"
     inkscape:window-height="1043"
     id="namedview4"
     showgrid="false"
     inkscape:zoom="0.30594726"
     inkscape:cx="2133.3333"
     inkscape:cy="1333.3334"
     inkscape:window-x="1420"
     inkscape:window-y="0"
     inkscape:window-maximized="1"
     inkscape:current-layer="g12" /><g
     id="g10"
     inkscape:groupmode="layer"
     inkscape:label="ink_ext_XXXXXX"
     transform="matrix(1.3333333,0,0,-1.3333333,0,2666.6667)"><g
       id="g12"
       transform="scale(0.1)"><g
         id="g14"
         transform="scale(1.96319)" /><g
         id="g18"
         transform="scale(1.9275)"><path
           d="m 15455.8,2001.4 -2485.1,-35.23 -1294.2,-9.44 -65.4,0.26 -2482.97,9.8 -7698.37,22.57 c 0,0 -888.262,833.05 -316.42,2307.65 711.75,1835.52 2704.58,1254.74 3768.15,2808.41 418.58,611.49 961.66,1051.76 1560.16,1321.72 37.51,17.03 75.28,33.24 113.26,48.8 0,0 0,0.07 0.05,0.07 58.88,24.21 118.23,46.77 178,67.74 30.3,10.68 60.7,20.91 91.26,30.63 0.93,0.32 1.92,0.64 2.85,0.96 l 0.05,0.06 c 30.3,9.73 60.76,19 91.21,27.83 l 0.05,0.07 c 361.87,105.56 736.45,153.67 1110.14,144.52 802.75,-19.52 1601.71,-303.21 2262.48,-849.17 12.2,-10.1 24.5,-20.33 36.6,-30.63 18.2,-15.44 36.4,-30.5 54.6,-45.24 1,-0.83 2,-1.66 2.9,-2.42 27.8,-22.49 55.5,-44.23 83.2,-65.27 2.7,-2.03 5.4,-4.06 8.1,-6.03 28.7,-21.74 57.4,-42.58 86.1,-62.66 18.2,-12.84 36.5,-25.29 54.8,-37.49 3.9,-2.61 7.7,-5.22 11.6,-7.76 17.9,-11.89 35.9,-23.51 53.9,-34.82 11.3,-7.19 22.7,-14.24 34,-21.17 2.3,-1.4 4.6,-2.86 7,-4.25 37.8,-23.01 75.6,-44.75 113.3,-65.21 1627.2,-886.84 3134.4,434.31 4567.6,-1325.4 716.9,-880.23 895.3,-3276.06 51.1,-4188.9"
           style="fill:#ebf3fa;fill-opacity:1;fill-rule:nonzero;stroke:none"
           id="path20"
           inkscape:connector-curvature="0" /></g><path
         d="m 10174.6,7133.8 c 0,0 -174.4,404 145.1,527 0,0 222.7,55.3 372.7,-1.4 0,0 -329.4,-295.9 -270.5,-353.8 58.8,-57.9 343.3,356.2 343.3,356.2 0,0 439.4,-91.2 556.1,-199.8 0,0 -457.3,-185.1 -386.1,-226.7 71.3,-41.7 556.2,128.9 556.2,128.9 0,0 376,-190.9 279.6,-426.5 -96.4,-235.6 -256.4,-267.9 -314.5,-242.8 -58.1,25.1 -368.2,268.6 -391.1,221.7 -23,-46.9 138.7,-273.6 284.6,-327.2 0,0 -375.8,-221.8 -534.1,-74.9 -158.4,146.9 -130.4,293 -229.9,382 -99.5,89 -198.5,119.6 -167.5,50.7 31.1,-68.9 224.7,-186.5 254.6,-324.4 29.9,-138 64.8,-235.6 -118.7,-146.8 -183.4,88.7 -452.6,326.7 -416.2,492.3 36.4,165.5 36.4,165.5 36.4,165.5"
         style="fill:#c8dbf4;fill-opacity:1;fill-rule:nonzero;stroke:none"
         id="path22"
         inkscape:connector-curvature="0" /><path
         d="m 11573.9,6991.7 c 0,0 -1065.4,376.5 -1399.3,142.1 0,0 -101.7,-141.4 -308.38,-234.7 l -46.65,-61 c 0,0 248.03,139 318.63,130.2 0,0 14.1,414.5 1435.7,23.4"
         style="fill:#c8dbf4;fill-opacity:1;fill-rule:nonzero;stroke:none"
         id="path24"
         inkscape:connector-curvature="0" /><path
         d="m 9866.22,6899.1 c 0,0 -284.63,-99.2 -395.71,-400.1 l 40.84,-16.8 c 0,0 172.15,293.3 344.18,375.5 172.07,82.1 10.69,41.4 10.69,41.4"
         style="fill:#c8dbf4;fill-opacity:1;fill-rule:nonzero;stroke:none"
         id="path26"
         inkscape:connector-curvature="0" /><path
         d="m 8986.74,8423 c 0,0 510.73,108.6 410.4,502.3 0,0 -99.36,253.4 -257.16,359.7 0,0 -60.34,-521.9 -156.76,-504.7 -96.41,17.2 109.16,576.7 109.16,576.7 0,0 -389.8,362.8 -575.03,401.2 0,0 134.7,-569.7 45.49,-529.3 -89.21,40.5 -256.91,626.8 -256.91,626.8 0,0 -442.84,233 -604.74,-22 -161.89,-255.1 -83.32,-432.1 -19.11,-471.1 64.2,-39.1 512.67,-172 483.05,-226.4 -29.62,-54.4 -360.09,-53.5 -512.1,50.9 0,0 43.29,-515.9 294.13,-568.4 250.84,-52.4 373.1,75 527.52,39.7 154.43,-35.2 252.03,-110.1 164.01,-127.2 -88.03,-17.2 -334.78,89.3 -488.76,23.6 -153.99,-65.7 -272.43,-98.9 -60.6,-215.6 211.81,-116.6 626.88,-213.8 762.14,-65 135.27,148.8 135.27,148.8 135.27,148.8"
         style="fill:#c8dbf4;fill-opacity:1;fill-rule:nonzero;stroke:none"
         id="path28"
         inkscape:connector-curvature="0" /><path
         d="m 7888.8,9680 c 0,0 1095.65,-772.9 1097.94,-1257 0,0 -67.06,-195.4 -15.51,-459.4 l -27.03,-87.1 c 0,0 -35.73,335.5 -92.73,397.7 0,0 391.56,298.2 -962.67,1405.8"
         style="fill:#c8dbf4;fill-opacity:1;fill-rule:nonzero;stroke:none"
         id="path30"
         inkscape:connector-curvature="0" /><path
         d="m 8971.23,7963.6 c 0,0 99.25,-343.7 -115.71,-657.7 l -44.3,28 c 0,0 165.72,367.9 127.18,590.8 -38.54,222.9 32.83,38.9 32.83,38.9"
         style="fill:#c8dbf4;fill-opacity:1;fill-rule:nonzero;stroke:none"
         id="path32"
         inkscape:connector-curvature="0" /><path
         d="m 9783.25,8544.1 c 0,0 -473.74,499.2 -70.73,852 0,0 297.18,201.1 547.98,198.7 0,0 -324.21,-612 -206.6,-665.3 117.6,-53.3 312.1,708 312.1,708 0,0 694.3,102.9 924.3,6.3 0,0 -571.9,-518.2 -444.8,-540.9 127.1,-22.8 747.2,488.9 747.2,488.9 0,0 655,-77.7 640.4,-475.6 -14.6,-397.9 -232.2,-531.5 -331.1,-526 -98.8,5.6 -685.3,196.1 -693.7,114.9 -8.5,-81.2 351.2,-327.1 594.3,-327.1 0,0 -432.3,-528.1 -744,-397.7 -311.7,130.3 -349.3,360 -543.4,437 -194,77.1 -355.9,68.7 -273.2,-15.7 82.8,-84.4 430.5,-152.9 548.6,-339.3 118.2,-186.4 222.1,-310.9 -95.2,-279.5 -317.2,31.5 -840.55,236 -876.35,498.6 -35.8,262.7 -35.8,262.7 -35.8,262.7"
         style="fill:#d4e4f8;fill-opacity:1;fill-rule:nonzero;stroke:none"
         id="path34"
         inkscape:connector-curvature="0" /><path
         d="m 11914.6,9089.4 c 0,0 -1767.3,-21.2 -2131.35,-545.3 0,0 -73.1,-262.4 -326.31,-510.7 l -35.63,-114.7 c 0,0 289.35,337.7 397.74,362.7 0,0 -202.63,616.3 2095.55,808"
         style="fill:#d4e4f8;fill-opacity:1;fill-rule:nonzero;stroke:none"
         id="path36"
         inkscape:connector-curvature="0" /><path
         d="m 9456.94,8033.4 c 0,0 -364.44,-299.2 -365.44,-800.8 l 69.02,-2.6 c 0,0 94.76,523.4 303.09,736.7 208.32,213.3 -6.67,66.7 -6.67,66.7"
         style="fill:#d4e4f8;fill-opacity:1;fill-rule:nonzero;stroke:none"
         id="path38"
         inkscape:connector-curvature="0" /><g
         id="g40"
         transform="scale(1.51482)"><path
           d="m 10290,4841.89 c 23.4,-64.1 248.7,-123.71 583.1,-176.33 58.9,-9.3 121.1,-18.41 186.4,-27.26 1137.9,-154.47 4254.7,-240.75 4446.8,-195.2 265.5,62.97 793.7,3140.17 793.7,3140.17 0,0 -1555.4,31.08 -2790.6,46.23 -422.5,5.11 -1742.2,-14.49 -2249.9,-99.11 -416.4,-69.4 -1007.4,-2584.53 -969.5,-2688.5"
           style="fill:#cde3fd;fill-opacity:1;fill-rule:nonzero;stroke:none"
           id="path42"
           inkscape:connector-curvature="0" /></g><g
         id="g44"
         transform="scale(1.06891)"><path
           d="m 15312.5,7421.59 c 0,0 757.6,2885.81 812.4,3128.41 24.3,108.1 99.4,147.1 175.1,157.2 -133.2,12.7 -230,13.7 -230,13.7 -262.3,0 -495.2,-175.4 -579.4,-436.2 -183.5,-568.61 -548.2,-1661.13 -890.4,-2729.23 17.3,0.47 712.3,-133.88 712.3,-133.88"
           style="fill:#d2e3fc;fill-opacity:1;fill-rule:nonzero;stroke:none"
           id="path46"
           inkscape:connector-curvature="0" /></g><path
         d="m 11765.2,5105 c 133,-801.2 1002.5,-1311.4 1894.4,-1311.4 h 1766.6 l -137,4628.9 c 0,0 -1686.7,549.6 -2110,65.8 -370.9,-424 -1376.6,-2102 -1429.6,-3095.2 -5.2,-99.7 0.2,-195.9 15.6,-288.1"
         style="fill:#cde3fd;fill-opacity:1;fill-rule:nonzero;stroke:none"
         id="path48"
         inkscape:connector-curvature="0" /><path
         d="m 11765.2,5105 c 133,-801.2 1002.5,-1311.4 1894.4,-1311.4 h 866.6 c -577.9,368.2 -1100.4,1503.1 -2761,1311.4"
         style="fill:#bbd6f4;fill-opacity:1;fill-rule:nonzero;stroke:none"
         id="path50"
         inkscape:connector-curvature="0" /><g
         id="g52"
         transform="scale(1.00948)"><path
           d="m 16300,7894.13 c 0,0 -2360.6,1132.85 -2807.8,392.87 -237.4,-392.97 -890.7,-1960.7 -939,-2944.47 -46.8,-956.03 834,-1584.57 1740,-1584.57 h 1609.4 l 397.4,4136.17"
           style="fill:#b1cbef;fill-opacity:1;fill-rule:nonzero;stroke:none"
           id="path54"
           inkscape:connector-curvature="0" /></g><g
         id="g56"
         transform="scale(1.31244)"><path
           d="m 10650,3484.67 c 15,-16.08 30.4,-31.93 46.1,-47.47 195.5,-193.31 450.4,-347.07 742.1,-442.46 220.4,-72.01 461.7,-110.64 714.2,-107.74 l 438.7,-0.15 h 5.9 l 2076.7,-0.76 1190.4,-0.46 h 17.6 l 0.1,0.68 41.3,289.85 376.9,2923.11 c 0,0 -5216.3,157.57 -5640.4,-167.24 -197,-150.79 -308.8,-775.51 -370.7,-1463.92 -33,-366.58 106.8,-710.59 361.1,-983.44"
           style="fill:#c5dbf8;fill-opacity:1;fill-rule:nonzero;stroke:none"
           id="path58"
           inkscape:connector-curvature="0" /></g><g
         id="g60"
         transform="scale(1.28209)"><path
           d="m 10902.1,3567.15 c 15.3,-16.45 31.1,-32.68 47.2,-48.59 200.1,-197.88 461.1,-355.28 759.7,-452.93 225.6,-73.71 472.6,-113.25 731,-110.29 l 449.2,-0.16 h 6 l 2125.9,-0.78 1218.5,-0.46 18.1,0.7 42.3,296.7 c -746.9,193.59 -1780.4,390.31 -2858.5,375.02 -1029.6,-14.59 -1891.7,-12.72 -2539.4,-59.21"
           style="fill:#bbd6f4;fill-opacity:1;fill-rule:nonzero;stroke:none"
           id="path62"
           inkscape:connector-curvature="0" /></g><g
         id="g64"
         transform="scale(1.41118)"><path
           d="m 12555.5,8073.13 c 8.3,8.44 72,49.72 89,66.76 0,0 -100.4,18.15 -133.5,13.07 -19,-2.91 -70.7,-30.06 -70.7,-30.06 l -114.4,-9.51 c 0,0 72.1,119.06 155.5,161.37 97.7,49.54 297.3,23.39 297.3,23.39 0,0 777.2,127.25 1212,116.43 116.6,-2.9 946,132.3 1185,84.41 126,-25.24 240.1,-45.19 313.5,-57.18 44.8,-7.32 86.4,25.02 90.4,70.26 l 0.1,0.78 c 13.6,156.68 33.1,244.51 33.1,244.51 l 291.7,141.17 c 60.3,-32.01 116.7,-62 146.5,-77.89 -1.4,-16.18 -2.4,-32.02 -2.9,-47.62 -2.7,-80.03 5.9,-151.89 20,-214.47 26.1,-115.58 115.9,-205.99 230.5,-236.37 l 1.4,-0.38 c -218.7,-188.32 -1331.4,-516.4 -1350.3,-420.19 -25.4,129.43 -2057.1,253.07 -2057.1,253.07 0,0 -134.9,-2.91 -171.4,-56.77 -21.7,-31.99 -118.7,-43.35 -158.6,-61.93 -20.5,-9.54 -26.3,17.47 -7.1,37.15"
           style="fill:#ffb27d;fill-opacity:1;fill-rule:nonzero;stroke:none"
           id="path66"
           inkscape:connector-curvature="0" /></g><g
         id="g68"
         transform="scale(1.05721)"><path
           d="m 15755.4,4557.73 c 0,0 -301.9,-544.35 -435.5,-605.74 -106.2,-48.81 -393.6,-97.05 -553.7,-220.3 -185.7,-142.92 135.9,-135.35 206.5,-135.35 0,0 359.9,42.85 530.3,39.25 98.2,-2.17 390.9,-39.25 390.9,-39.25 230.5,0 406.1,209.32 363,435.76 -0.4,2.08 -0.8,4.26 -1.3,6.34 -41.7,210.36 -74.1,481.74 -74.1,481.74 l -426.1,37.55"
           style="fill:#d9ecff;fill-opacity:1;fill-rule:nonzero;stroke:none"
           id="path70"
           inkscape:connector-curvature="0" /></g><g
         id="g72"
         transform="scale(1.34182)"><path
           d="m 15376.9,8685.39 c 5,-111.51 36.1,-233.74 135.4,-298.21 156.9,-101.76 117.2,-367.35 116.2,-471.63 l 671.5,961.56 c 0,0 -186.2,47.57 -408.9,71.98 -135.6,14.87 -492.2,-25.95 -492.2,-25.95 0,0 -27.6,-112.06 -22,-237.75"
           style="fill:#f9ddbf;fill-opacity:1;fill-rule:nonzero;stroke:none"
           id="path74"
           inkscape:connector-curvature="0" /></g><g
         id="g76"
         transform="scale(1.14182)"><path
           d="m 15808.5,4022.78 c 0,0 -278.5,-306.79 -402.2,-363.63 -88.5,-40.64 -326.5,-64.28 -468.2,-167.19 -149.7,-108.68 -35.1,-162.11 51.9,-162.11 0,0 397.9,-31.7 651.5,39.76 69.1,19.45 258.2,-19.26 325.6,-34.24 20.4,-4.55 150.5,-15.15 171.2,-12.52 154.5,19.7 161.7,167.89 147.1,327.37 -2.7,29.51 -6.9,59.47 -12.7,88.98 -38.6,194.77 -61.9,375.89 -61.9,375.89 l -402.3,-92.31"
           style="fill:#ffffff;fill-opacity:1;fill-rule:nonzero;stroke:none"
           id="path78"
           inkscape:connector-curvature="0" /></g><g
         id="g80"
         transform="scale(1.30582)"><path
           d="m 12623.1,3665.06 c 0,0 88,-61.49 165.3,-87.22 121.8,-40.59 348.8,-21.75 348.8,-21.75 0,0 579.6,1124.36 702,1408.77 115.9,269.65 212.9,860.77 212.9,860.77 88.6,4.75 750.7,-88.99 1332.4,-26.04 309.5,33.39 571.2,109.82 660,266.12 255.5,450.22 -561,952.28 -561,952.28 0,0 -1596.4,-287.79 -1947.2,-542.58 -332.5,-241.53 -913.2,-2810.35 -913.2,-2810.35"
           style="fill:#f4904d;fill-opacity:1;fill-rule:nonzero;stroke:none"
           id="path82"
           inkscape:connector-curvature="0" /></g><g
         id="g84"
         transform="scale(1.36968)"><path
           d="m 13095.9,3366.2 c 0,0 118.3,-61.99 194.9,-74.98 139.2,-23.58 289.2,23 289.2,23 0,0 85,513.48 433.4,1335.13 87.5,206.18 141.9,585.47 153.6,590.8 0,0 1836.1,27.08 2057.2,454.63 35.9,69.29 75.8,264.88 71.4,328.48 -23.1,338.1 -462.2,468.65 -462.2,468.65 0,0 -1984.7,-351.04 -2325.4,-585.11 -340.7,-234.07 -412.1,-2540.6 -412.1,-2540.6"
           style="fill:#ffa561;fill-opacity:1;fill-rule:nonzero;stroke:none"
           id="path86"
           inkscape:connector-curvature="0" /></g><g
         id="g88"
         transform="scale(1.44726)"><path
           d="m 16286.7,7338.83 c -0.1,-7.09 -3.6,-28.02 -10.2,-59.66 -16.6,-81.08 -52.8,-232.45 -100.5,-400.54 -46.3,-163.34 -103.7,-342.43 -164.7,-488.09 -153.2,-365.59 -474.8,-775.32 -586.6,-741.53 -146.4,44.15 -435.7,155.94 -963.6,247.29 -419.2,72.55 -533,227.05 -642.5,422.38 -30.1,53.83 272.1,81.74 492.4,589.46 145.3,334.96 266,796.47 266,796.47 l 535.4,525.77 c -2.6,-4.35 -84.5,-152.98 114.6,-239.38 202,-87.67 573.1,164.66 573.1,164.66 0.3,-1.77 499.9,-159.59 486.6,-816.83"
           style="fill:#f9ddbf;fill-opacity:1;fill-rule:nonzero;stroke:none"
           id="path90"
           inkscape:connector-curvature="0" /></g><g
         id="g92"
         transform="scale(1.38735)"><path
           d="m 15880.9,8907.77 c 0,0 -19.8,-89.34 -33.6,-248.72 251.8,8.25 451.3,269.39 452.7,285.84 -30.4,16.17 -61,73.91 -122.3,106.48 l -296.8,-143.6"
           style="fill:#ed985f;fill-opacity:1;fill-rule:nonzero;stroke:none"
           id="path94"
           inkscape:connector-curvature="0" /></g><g
         id="g96"
         transform="scale(1.39431)"><path
           d="m 15743.2,8703.69 c 0,0 527.3,15.04 512.8,343.26 -14.4,328.23 44,551.22 -293.3,555.5 -337.2,4.28 -397.1,-123.84 -418.9,-234.57 -21.9,-110.72 61.9,-659.64 199.4,-664.19"
           style="fill:#ffb27d;fill-opacity:1;fill-rule:nonzero;stroke:none"
           id="path98"
           inkscape:connector-curvature="0" /></g><g
         id="g100"
         transform="scale(1.40585)"><path
           d="m 16094.4,8841.08 c 0,0 20.9,108.14 -37.7,179.81 0,0 38.4,106.01 -2.3,129.97 -40.8,23.96 -62.4,-66.63 -80.3,-49.5 -17.7,17.13 -96.5,97.7 -120.4,203.74 -24,106.04 -386.9,31.58 -429.8,18.96 -7.1,-2.09 -16.4,-1.5 -27,1.22 -90.8,23.26 -117.8,141.24 -47.6,203.39 4.3,3.78 8.3,7.53 11.9,11.2 38.4,38.74 305.4,299.19 610.9,172.72 305.5,-126.47 327.9,-283.67 292,-410.82 -35.8,-127.16 -33.9,-435.06 -169.7,-460.69"
           style="fill:#2b478b;fill-opacity:1;fill-rule:nonzero;stroke:none"
           id="path102"
           inkscape:connector-curvature="0" /></g><g
         id="g104"
         transform="scale(1.35617)"><path
           d="m 16300,9155.91 c 0,0 -35.2,-48.96 -108.5,-61.84 -73.3,-12.88 -89.4,44.31 -89.4,44.31 0,0 67.2,22.21 197.9,17.53"
           style="fill:#ffffff;fill-opacity:1;fill-rule:nonzero;stroke:none"
           id="path106"
           inkscape:connector-curvature="0" /></g><g
         id="g108"
         transform="scale(1.34891)"><path
           d="m 15421.5,7864.06 c 0,0 707.3,-705.38 792.9,-820.07 85.6,-114.61 -77,-509.89 -105.4,-506.85 -28.4,3.04 -346.5,290.46 -461.4,530.13 -114.9,239.6 -326.2,586.74 -326.2,586.74 l 100.1,210.05"
           style="fill:#ffb27d;fill-opacity:1;fill-rule:nonzero;stroke:none"
           id="path110"
           inkscape:connector-curvature="0" /></g><g
         id="g112"
         transform="scale(1.27215)"><path
           d="m 16025.7,8184.01 201.1,36.72 c 53,9.69 73.2,57.79 45.1,107.46 l -236.7,418.29 c -28.2,49.66 -93.9,82.06 -146.9,72.37 l -201,-36.72 c -53.1,-9.69 -73.3,-57.79 -45.2,-107.45 l 236.8,-418.3 c 28.1,-49.65 93.9,-82.05 146.8,-72.37"
           style="fill:#77a4e5;fill-opacity:1;fill-rule:nonzero;stroke:none"
           id="path114"
           inkscape:connector-curvature="0" /></g><g
         id="g116"
         transform="scale(1.27986)"><path
           d="m 16015,8135.53 h 203.1 c 53.5,0 81.9,43.44 63.3,97 l -156.7,451.3 c -18.7,53.58 -77.1,97.02 -130.7,97.02 h -203.2 c -53.5,0 -81.9,-43.44 -63.3,-97.02 l 156.8,-451.3 c 18.6,-53.56 77.1,-97 130.7,-97"
           style="fill:#f99746;fill-opacity:1;fill-rule:nonzero;stroke:none"
           id="path118"
           inkscape:connector-curvature="0" /></g><g
         id="g120"
         transform="scale(1.28717)"><path
           d="m 16093.9,7964.62 c 0,0 -154.8,101.95 -234.4,150.76 -79.6,48.79 -144.9,363.93 -108.3,358.74 36.6,-5.19 343.7,-138.3 446.2,-291.65 102.6,-153.36 -103.5,-217.85 -103.5,-217.85"
           style="fill:#ffb27d;fill-opacity:1;fill-rule:nonzero;stroke:none"
           id="path122"
           inkscape:connector-curvature="0" /></g><g
         id="g124"
         transform="scale(1.28245)"><path
           d="m 16300,8187.08 c 0,0 -30.3,110.14 -24.5,128.53 5.9,18.39 -58.5,111.96 -72.1,147.05 -13.7,35.09 -31.4,88.94 -50.1,64.7 -18.7,-24.26 -13.4,-73.97 0,-111.98 13.5,-38.01 -21.6,-97.05 -21.6,-97.05 l 43.8,-74.95 124.5,-56.3"
           style="fill:#ffb27d;fill-opacity:1;fill-rule:nonzero;stroke:none"
           id="path126"
           inkscape:connector-curvature="0" /></g><g
         id="g128"
         transform="scale(1.44518)"><path
           d="m 16300,7289.68 c -16.7,-81.2 -52.9,-232.78 -100.7,-401.12 -284.4,-302.93 -962.1,-668.36 -962.1,-668.36 l 592.5,774.04 306.4,350.75 c 0,0 105.2,7.34 163.9,-55.31"
           style="fill:#f2ccaa;fill-opacity:1;fill-rule:nonzero;stroke:none"
           id="path130"
           inkscape:connector-curvature="0" /></g><g
         id="g132"
         transform="scale(1.45468)"><path
           d="m 16229.5,7547.05 c 0,0 70.5,-112.12 -133.2,-406.84 -203.6,-294.7 -1095.8,-1147.19 -1184.9,-1075.56 -88.9,71.77 -200.3,182.79 6.4,456.53 206.8,273.81 868.1,1210.93 868.1,1210.93 l 443.6,-185.06"
           style="fill:#ffb27d;fill-opacity:1;fill-rule:nonzero;stroke:none"
           id="path134"
           inkscape:connector-curvature="0" /></g><g
         id="g136"
         transform="scale(1.46363)"><path
           d="m 15203.4,7099.71 c 167.4,-93.39 290.4,-168 546.6,-167.4 192.9,0.45 351.9,38.09 351.9,38.09 0,0 198.1,805.72 -172.1,971.56 -127.5,57.11 -306.4,122.48 -306.4,122.48 0,0 -719.8,-797.5 -420,-964.73"
           style="fill:#f9ddbf;fill-opacity:1;fill-rule:nonzero;stroke:none"
           id="path138"
           inkscape:connector-curvature="0" /></g><g
         id="g140"
         transform="scale(1.36214)"><path
           d="m 13833.6,3717.02 c 105.1,-570.5 682.2,-931.99 1273.7,-931.99 H 16300 l -93.3,3428.35 c 0,0 -1137.9,373.38 -1423.7,18.21 -250.4,-311.28 -929.4,-1543.16 -965.2,-2272.31 -4.1,-84.35 1.5,-165.25 15.8,-242.26"
           style="fill:#cbdffa;fill-opacity:1;fill-rule:nonzero;stroke:none"
           id="path142"
           inkscape:connector-curvature="0" /></g><g
         id="g144"
         transform="scale(1.34223)"><path
           d="m 14038.8,3772.16 c 106.7,-578.96 692.4,-945.81 1292.7,-945.81 h 968.5 c -453.4,288.92 -1063.8,1087.22 -2261.2,945.81"
           style="fill:#bad4fa;fill-opacity:1;fill-rule:nonzero;stroke:none"
           id="path146"
           inkscape:connector-curvature="0" /></g><g
         id="g148"
         transform="scale(1.6109)"><path
           d="m 12274.5,3122.86 c 40.1,-190.45 142.6,-352.48 282.9,-478 v -0.06 c 83.7,-74.92 180.9,-136.75 286.4,-183.87 129.7,-57.92 271.8,-93.61 417,-103.86 7.5,-0.49 15,-0.99 22.6,-1.36 5.9,-0.31 11.9,-0.56 18,-0.75 10,-0.43 19.9,-0.68 30,-0.8 5.3,-0.07 10.6,-0.13 16,-0.13 h 1008.5 v 0.5 c 19.1,-0.25 38.6,-0.5 58.3,-0.75 103.7,-1.18 212.2,-2.29 312.8,-3.16 16.8,-0.13 33.5,-0.25 49.8,-0.37 6.1,-0.07 12.2,-0.07 18.1,-0.07 99.4,-0.68 187.4,-0.93 250,-0.56 88.2,0.56 171.3,6.4 249.4,18.07 100.9,15.02 193.4,39.61 278,74.8 15.1,6.27 30,12.85 44.5,19.8 14.9,7.14 29.5,14.53 43.9,22.35 38.3,20.74 74.8,44.14 109.3,70.15 89.5,67.17 166.8,152.21 232.7,256.88 45.8,72.81 86.1,155.13 120.9,247.68 42.7,113.17 77.2,241.61 104,386.37 0.7,3.67 1.4,7.33 2.1,11.05 12,66.55 22.5,136.51 31.4,210.01 4,33.46 7.7,67.6 11.2,102.55 11.9,123.41 19.9,256.07 24,398.41 0.3,12.42 0.7,24.9 0.9,37.44 0.1,2.79 0.1,5.58 0.2,8.38 2.5,113.1 2.6,232.1 0.4,357.44 -0.9,54.93 -2.3,110.99 -4.2,168.29 -0.8,26.07 -1.7,52.39 -2.8,78.96 -5.1,133.28 -12.6,272.83 -22.1,419.02 -4.4,65.62 -9.1,132.54 -14.3,200.88 -21.5,281.46 -50.6,585.7 -86.6,914.13 -40.7,372.8 -87.9,633.41 -156.3,692.77 -101,87.56 -311.8,122.81 -458.4,136.9 h -0.1 c -90.9,8.78 -157.1,9.43 -157.1,9.43 -3.3,0 -6.5,-0.06 -9.8,-0.12 -2.3,-0.06 -4.6,-0.12 -7,-0.24 -5.5,-0.24 -11.1,-0.59 -16.6,-1.06 -3,-0.25 -6.2,-0.54 -9.3,-0.9 -2.1,-0.17 -4,-0.41 -6.1,-0.7 -3,-0.36 -6.1,-0.78 -9.2,-1.25 -5.4,-0.77 -10.8,-1.72 -16.2,-2.72 -3.6,-0.71 -7.4,-1.49 -11.1,-2.32 -0.3,0 -0.6,-0.12 -0.9,-0.17 -2.7,-0.6 -5.4,-1.19 -8,-1.9 -5.1,-1.19 -10.1,-2.55 -15.1,-3.97 -3.4,-1.01 -6.8,-2.02 -10.2,-3.08 -2.3,-0.77 -4.7,-1.54 -7.1,-2.31 -28,-9.48 -54.8,-21.98 -80.2,-37.26 -86.9,-52.43 -155.3,-137.38 -188.9,-242.54 -117.1,-365.81 -326.1,-1019.82 -543.5,-1703.91 -1.1,-3.42 -2.3,-6.83 -3.3,-10.31 -12.5,-39.23 -25,-78.71 -37.6,-118.19 -1.2,-3.98 -2.5,-7.95 -3.8,-11.92 -0.6,-2.05 -1.3,-4.03 -1.9,-6.08 -12.3,5.15 -24.9,10.55 -38.1,15.95 -0.4,0.25 -0.8,0.43 -1.4,0.56 -52.1,21.79 -111.1,45.56 -174.8,69.83 v 0 c -33.1,12.55 -67.2,25.33 -102.5,38 -99.5,35.88 -206.9,71.32 -315.8,101.87 -48.3,13.59 -97,26.25 -145.3,37.49 -62.1,14.46 -123.8,26.69 -183.8,35.76 -2.1,0.37 -3.8,0.62 -5.3,0.86 -7,1.06 -14.1,1.99 -21.1,2.98 -42.4,5.84 -83.8,10.12 -123.9,12.42 h -0.1 c -205.1,11.79 -374.9,-26.75 -452.7,-155.69 -29,-48.23 -67.9,-124.59 -112.1,-220.87 -91.4,-199.02 -204.8,-483.33 -298.2,-780 -92.9,-294.74 -165.9,-601.72 -178.1,-849.71 -3.9,-79.46 2.4,-155.2 17.6,-227.02"
           style="fill:#b1cbef;fill-opacity:1;fill-rule:nonzero;stroke:none"
           id="path150"
           inkscape:connector-curvature="0" /></g><g
         id="g152"
         transform="scale(1.53707)"><path
           d="m 15593,5161.11 c 0,0 542.5,2077.95 581.6,2252.59 17.5,77.84 71.2,105.97 125.4,113.21 -95.3,9.17 -164.7,9.86 -164.7,9.86 -187.7,0 -354.5,-126.31 -414.8,-314.05 -131.3,-409.46 -373.2,-1164.52 -618.3,-1933.64 12.4,0.32 490.8,-127.97 490.8,-127.97"
           style="fill:#cbdffa;fill-opacity:1;fill-rule:nonzero;stroke:none"
           id="path154"
           inkscape:connector-curvature="0" /></g><g
         id="g156"
         transform="scale(1.00123)"><path
           d="m 16141.4,13493.2 h -1900 c -87.3,0 -158.6,71.3 -158.6,158.6 v 1833.8 c 0,87.2 71.3,158.6 158.6,158.6 h 1900 c 87.2,0 158.6,-71.4 158.6,-158.6 v -1833.8 c 0,-87.3 -71.4,-158.6 -158.6,-158.6"
           style="fill:#c0d8fb;fill-opacity:1;fill-rule:nonzero;stroke:none"
           id="path158"
           inkscape:connector-curvature="0" /></g><path
         d="m 16078.9,13603.1 h -1737.5 c -79.8,0 -145,65.3 -145,145 v 1677 c 0,79.8 65.2,145.1 145,145.1 h 1737.5 c 79.8,0 145,-65.3 145,-145.1 v -1677 c 0,-79.7 -65.2,-145 -145,-145"
         style="fill:#dfebfd;fill-opacity:1;fill-rule:nonzero;stroke:none"
         id="path160"
         inkscape:connector-curvature="0" /><path
         d="m 15164.2,15373.6 c 0,25.4 20.5,46 45.9,46 25.4,0 46,-20.6 46,-46 0,-25.4 -20.6,-46 -46,-46 -25.4,0 -45.9,20.6 -45.9,46"
         style="fill:#b7d3f3;fill-opacity:1;fill-rule:nonzero;stroke:none"
         id="path162"
         inkscape:connector-curvature="0" /><path
         d="m 15535.2,15308.6 c 12.3,22.2 40.3,30.2 62.5,17.9 22.2,-12.4 30.2,-40.4 17.9,-62.6 -12.3,-22.2 -40.3,-30.2 -62.5,-17.8 -22.2,12.3 -30.2,40.3 -17.9,62.5"
         style="fill:#b7d3f3;fill-opacity:1;fill-rule:nonzero;stroke:none"
         id="path164"
         inkscape:connector-curvature="0" /><path
         d="m 15853.1,15056 c 21.3,13.8 49.8,7.7 63.6,-13.7 13.7,-21.3 7.6,-49.8 -13.8,-63.5 -21.3,-13.8 -49.8,-7.7 -63.5,13.7 -13.8,21.3 -7.7,49.8 13.7,63.5"
         style="fill:#b7d3f3;fill-opacity:1;fill-rule:nonzero;stroke:none"
         id="path166"
         inkscape:connector-curvature="0" /><path
         d="m 16010.5,14665.2 c 25.4,0 46,-20.6 46,-46 0,-25.4 -20.6,-46 -46,-46 -25.3,0 -45.9,20.6 -45.9,46 0,25.4 20.6,46 45.9,46"
         style="fill:#b7d3f3;fill-opacity:1;fill-rule:nonzero;stroke:none"
         id="path168"
         inkscape:connector-curvature="0" /><path
         d="m 15930.2,14211.5 c 17.9,-17.9 17.9,-47.1 0,-65 -18,-18 -47.1,-18 -65.1,0 -17.9,17.9 -17.9,47.1 0,65 18,18 47.1,18 65.1,0"
         style="fill:#b7d3f3;fill-opacity:1;fill-rule:nonzero;stroke:none"
         id="path170"
         inkscape:connector-curvature="0" /><path
         d="m 15641.4,13922 c 18,-18 18,-47.1 0,-65 -18,-18 -47.1,-18 -65,0 -18,17.9 -18,47 0,65 17.9,17.9 47,17.9 65,0"
         style="fill:#b7d3f3;fill-opacity:1;fill-rule:nonzero;stroke:none"
         id="path172"
         inkscape:connector-curvature="0" /><path
         d="m 15164.2,13772.8 c 0,25.4 20.5,46 45.9,46 25.4,0 46,-20.6 46,-46 0,-25.4 -20.6,-46 -46,-46 -25.4,0 -45.9,20.6 -45.9,46"
         style="fill:#b7d3f3;fill-opacity:1;fill-rule:nonzero;stroke:none"
         id="path174"
         inkscape:connector-curvature="0" /><path
         d="m 14883.6,15308.6 c -12.3,22.2 -40.3,30.2 -62.5,17.9 -22.2,-12.4 -30.2,-40.4 -17.9,-62.6 12.4,-22.2 40.4,-30.2 62.6,-17.8 22.1,12.3 30.1,40.3 17.8,62.5"
         style="fill:#b7d3f3;fill-opacity:1;fill-rule:nonzero;stroke:none"
         id="path176"
         inkscape:connector-curvature="0" /><path
         d="m 14565.7,15056 c -21.3,13.8 -49.8,7.7 -63.6,-13.7 -13.7,-21.3 -7.6,-49.8 13.8,-63.5 21.3,-13.8 49.8,-7.7 63.5,13.7 13.8,21.3 7.7,49.8 -13.7,63.5"
         style="fill:#b7d3f3;fill-opacity:1;fill-rule:nonzero;stroke:none"
         id="path178"
         inkscape:connector-curvature="0" /><path
         d="m 14408.3,14665.2 c -25.4,0 -46,-20.6 -46,-46 0,-25.4 20.6,-46 46,-46 25.4,0 45.9,20.6 45.9,46 0,25.4 -20.5,46 -45.9,46"
         style="fill:#b7d3f3;fill-opacity:1;fill-rule:nonzero;stroke:none"
         id="path180"
         inkscape:connector-curvature="0" /><path
         d="m 14488.7,14211.5 c -18,-17.9 -18,-47.1 0,-65 17.9,-18 47,-18 65,0 17.9,17.9 17.9,47.1 0,65 -18,18 -47.1,18 -65,0"
         style="fill:#b7d3f3;fill-opacity:1;fill-rule:nonzero;stroke:none"
         id="path182"
         inkscape:connector-curvature="0" /><path
         d="m 14777.4,13922 c -17.9,-18 -17.9,-47.1 0,-65 18,-18 47.1,-18 65,0 18,17.9 18,47 0,65 -17.9,17.9 -47,17.9 -65,0"
         style="fill:#b7d3f3;fill-opacity:1;fill-rule:nonzero;stroke:none"
         id="path184"
         inkscape:connector-curvature="0" /><path
         d="m 15197.7,14619.2 c 0,25.4 20.6,46 46,46 25.4,0 46,-20.6 46,-46 0,-25.4 -20.6,-46 -46,-46 -25.4,0 -46,20.6 -46,46"
         style="fill:#b7d3f3;fill-opacity:1;fill-rule:nonzero;stroke:none"
         id="path186"
         inkscape:connector-curvature="0" /><path
         d="m 15250,14619.2 h -12.6 v 574.4 h 12.6 v -574.4"
         style="fill:#b7d3f3;fill-opacity:1;fill-rule:nonzero;stroke:none"
         id="path188"
         inkscape:connector-curvature="0" /><path
         d="m 15249.6,14605.2 -23.3,29.6 304.5,239.1 23.3,-29.7 -304.5,-239"
         style="fill:#b7d3f3;fill-opacity:1;fill-rule:nonzero;stroke:none"
         id="path190"
         inkscape:connector-curvature="0" /><g
         id="g192"
         transform="scale(1.50551)"><path
           d="m 16293.2,6097.01 c 0,0 -49,-737.16 -193.4,-740.35 -67.9,-1.53 -128.3,25.04 -109.7,278.64 15.8,216.41 -6.1,540.95 69.4,561.47 142.5,38.79 240.5,-18 233.7,-99.76"
           style="fill:#e8945b;fill-opacity:1;fill-rule:nonzero;stroke:none"
           id="path194"
           inkscape:connector-curvature="0" /></g><g
         id="g196"
         transform="scale(1.79309)"><path
           d="m 12529.3,2120.3 3404,-10.15 c 333.6,162.74 366.7,657.97 139.8,997.89 -21.1,31.57 -45.8,58 -71.4,80.81 -0.1,0.05 -0.1,0.17 -0.2,0.17 -113,100.77 -242.7,131.84 -146.3,228.21 51.9,51.92 105.2,103.84 146.3,164.52 67.8,100.05 102.4,223.97 42.8,410.57 -139.8,437.46 -182.3,947.42 -396.3,1067.6 -0.1,0.11 -0.1,0.11 -0.1,0.17 -231,129.49 -601.7,37.81 -967.8,-32.24 0,0 -312.2,-59.51 -607.3,-323.46 -135.3,-120.97 -107.9,-554.97 -108.9,-555.36 -2.9,-1.5 39,-182.08 -283.6,-257.65 -174.9,-40.94 -458.1,197.48 -748.8,104.06 -589.5,-189.39 -906.9,-1294.18 -402.2,-1875.14"
           style="fill:#ffa561;fill-opacity:1;fill-rule:nonzero;stroke:none"
           id="path198"
           inkscape:connector-curvature="0" /></g><g
         id="g200"
         transform="scale(1.73425)"><path
           d="m 15989.9,4751.63 c -230,-124.31 -256.7,-536.19 -616.4,-641.43 -359.7,-105.34 -731.6,38.93 -1078.7,-335.3 -159.2,-171.55 726,1418.77 726,1418.77 378.7,72.42 919.2,172.01 1158.1,38.06 0,-0.06 0,-0.06 0.1,-0.12 121,-132.85 40.8,-355.6 -189.1,-479.98"
           style="fill:#f4904d;fill-opacity:1;fill-rule:nonzero;stroke:none"
           id="path202"
           inkscape:connector-curvature="0" /></g><g
         id="g204"
         transform="scale(1.48296)"><path
           d="m 15968.6,3132.31 c 0,0 -64.6,-160.76 -147.4,-239.92 -82.8,-79.1 -214,-154.09 -179.9,-190.57 34.2,-36.48 284.6,41.47 368.9,100.47 84.2,59.01 254.3,45.59 272,108.7 17.8,63.12 -155.8,261.44 -155.8,261.44 l -157.8,-40.12"
           style="fill:#ffffff;fill-opacity:1;fill-rule:nonzero;stroke:none"
           id="path206"
           inkscape:connector-curvature="0" /></g><g
         id="g208"
         transform="scale(1.55396)"><path
           d="m 15935,3110.69 c 0,0 20.9,-157.72 -9.7,-258.43 -30.5,-100.65 -101.7,-219.83 -57.9,-233.6 43.8,-13.77 209,161.59 249.7,246.79 40.8,85.2 182.9,151.16 168.7,209.66 -14.3,58.49 -242.7,138.86 -242.7,138.86 L 15935,3110.69"
           style="fill:#ffffff;fill-opacity:1;fill-rule:nonzero;stroke:none"
           id="path210"
           inkscape:connector-curvature="0" /></g><g
         id="g212"
         transform="scale(1.6282)"><path
           d="m 15456.9,4732.4 c 0,0 -927.2,-201.82 -1079.4,-502.27 -33.3,-65.84 -31.2,-170.07 24.5,-243.4 92,-121.12 247,58.16 399.8,47.17 282.7,-20.39 1498.2,-32.55 1312.9,322.68 -185.3,355.3 -657.8,375.82 -657.8,375.82"
           style="fill:#233862;fill-opacity:1;fill-rule:nonzero;stroke:none"
           id="path214"
           inkscape:connector-curvature="0" /></g><g
         id="g216"
         transform="scale(1.5376)"><path
           d="M 15250.7,4221.66 16083,3125.34 c 0,0 65.1,-17.56 131.7,25.29 73.8,47.55 85.3,98.02 85.3,98.02 0,0 -341.2,1115.96 -602.6,1259.95 -261.4,143.99 -446.7,-286.94 -446.7,-286.94"
           style="fill:#233862;fill-opacity:1;fill-rule:nonzero;stroke:none"
           id="path218"
           inkscape:connector-curvature="0" /></g><g
         id="g220"
         transform="scale(1.65042)"><path
           d="m 15730.5,4617.08 c 0,0 -1100.8,-259.64 -1181.3,-511.39 -85.7,-268.05 113.3,-242.36 392.1,-262.48 278.9,-20.12 1358.7,117.49 1332.6,511.93 -39.3,593.31 -543.4,261.94 -543.4,261.94"
           style="fill:#2b478b;fill-opacity:1;fill-rule:nonzero;stroke:none"
           id="path222"
           inkscape:connector-curvature="0" /></g><g
         id="g224"
         transform="scale(1.53226)"><path
           d="m 15652.4,4348.6 -230.8,-1299.52 c 0,0 58,-53.12 168.2,-66.83 122,-15.27 149.7,28.59 149.7,28.59 0,0 560.5,1022.21 447.3,1311.98 -113.1,289.83 -534.4,25.78 -534.4,25.78"
           style="fill:#2b478b;fill-opacity:1;fill-rule:nonzero;stroke:none"
           id="path226"
           inkscape:connector-curvature="0" /></g><g
         id="g228"
         transform="scale(1.64675)"><path
           d="m 14678.8,5738.32 c -16.3,75.3 33.2,172.82 164.6,215.94 112.8,37.04 218.4,74.08 360.3,82.16 255.4,14.51 404.3,-84.65 567.7,-271.87 199.3,-228.39 421.8,-761.26 514,-1144.13 14.6,-60.42 -135,-87.63 -195.3,-102.56 -683.1,-168.64 -973.9,17.3 -1000.1,93.45 -33.1,96.25 -52.5,255.35 -132.4,401.28 -71.6,130.56 -256.9,624.5 -278.8,725.73"
           style="fill:#ffffff;fill-opacity:1;fill-rule:nonzero;stroke:none"
           id="path230"
           inkscape:connector-curvature="0" /></g><g
         id="g232"
         transform="scale(1.53666)"><path
           d="m 15904.8,6627.77 c 2.5,-11.54 8.1,-41.9 16.1,-79.52 6.1,-29.63 13.9,-63.78 22.9,-96.78 20.3,-74.51 46.6,-143.81 75.3,-143.81 264.6,0.06 280.9,141.86 273.9,161.13 0,0.12 0,0.12 0,0.12 -18.1,31.05 -53.6,99.69 -79.8,197.62 -0.3,0.96 -0.6,1.93 -0.8,2.9 -15.4,58.29 -27.5,126.83 -30.8,203.77 0,0 -225.9,-196.91 -269.5,-238 -4.7,-4.44 -7.3,-7.02 -7.3,-7.43"
           style="fill:#ffb27d;fill-opacity:1;fill-rule:nonzero;stroke:none"
           id="path234"
           inkscape:connector-curvature="0" /></g><g
         id="g236"
         transform="scale(1.5284)"><path
           d="m 15967.8,6656.12 c 4.6,-21.68 3.7,-45.62 6.6,-72.33 9.5,-0.33 20.4,-0.49 32.5,-0.16 6.2,-29.79 14,-64.13 23.1,-97.3 172.3,45.87 248.5,176.28 265.9,210.69 2.8,5.44 4.1,8.44 4.1,8.44 -111.6,7.63 -232.1,-6.57 -302,-34.41 -11.6,-4.63 -21.7,-9.58 -30.2,-14.93"
           style="fill:#e8945b;fill-opacity:1;fill-rule:nonzero;stroke:none"
           id="path238"
           inkscape:connector-curvature="0" /></g><g
         id="g240"
         transform="scale(1.54268)"><path
           d="m 15785.9,6525.98 c 0,0 15.4,-2.26 40.6,-3.14 9.4,-0.33 20.3,-0.49 32.2,-0.16 78.6,1.69 203.9,20.34 286.4,112.34 1.7,1.77 3.2,3.62 4.8,5.47 3.9,4.58 7.7,9.41 11.4,14.39 19.9,26.62 36.5,58.54 48.1,96.75 90.6,296.97 -67.6,487.8 -181.1,488.93 -194.2,2 -310.1,-71.17 -357.4,-151.67 -8,-13.42 -14,-26.94 -18.1,-40.45 -29,-94.4 -54.1,-496.73 133.1,-522.46"
           style="fill:#ffb27d;fill-opacity:1;fill-rule:nonzero;stroke:none"
           id="path242"
           inkscape:connector-curvature="0" /></g><g
         id="g244"
         transform="scale(1.50481)"><path
           d="m 16300,6856.8 c 0,0 -10.2,-36.47 -101.6,-27.06 0,0 -76.8,7.89 -72.7,48.28 0,0 75.7,25.76 174.3,-21.22"
           style="fill:#ffffff;fill-opacity:1;fill-rule:nonzero;stroke:none"
           id="path246"
           inkscape:connector-curvature="0" /></g><g
         id="g248"
         transform="scale(1.56567)"><path
           d="m 15923.7,6555.51 c 0,0 25.5,116.16 14.1,175.32 0,0 72.4,117.77 20,138.9 -52.5,21.13 -71.8,-45.87 -84.6,-34.61 -12.7,11.27 -54.6,221.69 -113.8,208.15 -59.2,-13.55 -273.4,-107.6 -380.2,-34.78 -106.9,72.83 91.8,427.56 506.3,346.48 414.5,-81.07 383.5,-535.16 38.2,-799.46"
           style="fill:#f4904d;fill-opacity:1;fill-rule:nonzero;stroke:none"
           id="path250"
           inkscape:connector-curvature="0" /></g><g
         id="g252"
         transform="scale(1.54787)"><path
           d="m 16287.9,7285.83 c 0,0 12.1,56.76 -12.1,93.56 0,0 5.2,-53.88 -13.2,-80.23 -18.4,-26.34 25.3,-13.33 25.3,-13.33"
           style="fill:#2c3a64;fill-opacity:1;fill-rule:nonzero;stroke:none"
           id="path254"
           inkscape:connector-curvature="0" /></g><g
         id="g256"
         transform="scale(1.55286)"><path
           d="m 16222.9,7299.58 c 0,0 49.2,11.34 77.1,-24.35 0,0 -37.9,19.77 -70.5,-9.48 l -6.6,33.83"
           style="fill:#2c3a64;fill-opacity:1;fill-rule:nonzero;stroke:none"
           id="path258"
           inkscape:connector-curvature="0" /></g><g
         id="g260"
         transform="scale(1.7045)"><path
           d="m 16070.6,4611.39 c 0,0 -190.7,-370.08 -644.1,-534.06 -496.7,-179.58 -453.3,-294.4 -722.6,-348.96 -147.4,-29.92 960.2,-479.55 975.4,-458.08 15.1,21.47 620.7,538.4 620.7,538.4 l -229.4,802.7"
           style="fill:#ffa561;fill-opacity:1;fill-rule:nonzero;stroke:none"
           id="path262"
           inkscape:connector-curvature="0" /></g><g
         id="g264"
         transform="scale(1.5157)"><path
           d="m 16031.9,6421 c 0,0 -167.1,-123.12 -177,-380.49 0,0 12,-109.19 228.6,-114.47 216.5,-5.34 -51.6,494.96 -51.6,494.96"
           style="fill:#ffffff;fill-opacity:1;fill-rule:nonzero;stroke:none"
           id="path266"
           inkscape:connector-curvature="0" /></g><g
         id="g268"
         transform="scale(1.49304)"><path
           d="m 16212.3,5387.27 c -132.2,-24.04 -262.4,-59.34 -533.2,-17.88 v 80.18 c 0,0 482.3,201.26 559.3,162.15 42,-21.23 56.6,-58.54 59.3,-116.94 2.3,-52.11 -34,-98.13 -85.4,-107.51"
           style="fill:#e8945b;fill-opacity:1;fill-rule:nonzero;stroke:none"
           id="path270"
           inkscape:connector-curvature="0" /></g><g
         id="g272"
         transform="scale(1.57304)"><path
           d="m 16300,5952.56 c 0,0 -125.6,-770.23 -302,-888.85 -176.5,-118.56 -634.4,-70.12 -634.4,-70.12 l 23,88.68 c 0,0 466.5,133.95 482.3,184.23 15.7,50.22 44.1,722.49 138.7,759.23 94.7,36.81 251.5,10.87 292.4,-73.17"
           style="fill:#ffb27d;fill-opacity:1;fill-rule:nonzero;stroke:none"
           id="path274"
           inkscape:connector-curvature="0" /></g><g
         id="g276"
         transform="scale(1.58294)"><path
           d="m 15937.8,6202.96 c 0,0 201.7,2.21 282,-128.37 80.2,-130.58 -20.4,-381.26 -20.4,-381.26 0,0 -310.9,-53.06 -447.7,127.74 0,0 30.5,332.8 186.1,381.89"
           style="fill:#ffffff;fill-opacity:1;fill-rule:nonzero;stroke:none"
           id="path278"
           inkscape:connector-curvature="0" /></g><g
         id="g280"
         transform="scale(1.76026)"><path
           d="m 15643.5,3263.5 c 202.1,9.32 453.2,134.58 656.5,-15 -115.2,102.66 -247.2,134.3 -149.1,232.47 52.9,52.89 107.2,105.78 149.1,167.59 0,0 -268.1,-143.39 -516.4,-198.5 -248.1,-55.1 -342.2,-195.93 -140.1,-186.56"
           style="fill:#f4904d;fill-opacity:1;fill-rule:nonzero;stroke:none"
           id="path282"
           inkscape:connector-curvature="0" /></g><g
         id="g284"
         transform="scale(1.47582)"><path
           d="m 16105.4,5214.59 142.6,26.08 c 37.6,6.84 52,41 32.1,76.23 l -168.1,296.85 c -19.9,35.3 -66.6,58.27 -104.2,51.43 l -142.7,-26.09 c -37.6,-6.91 -51.9,-41.06 -32,-76.29 l 168,-296.85 c 20,-35.24 66.6,-58.21 104.3,-51.36"
           style="fill:#b5453c;fill-opacity:1;fill-rule:nonzero;stroke:none"
           id="path286"
           inkscape:connector-curvature="0" /></g><g
         id="g288"
         transform="scale(1.48217)"><path
           d="m 16097.4,5192.85 h 144.4 c 38.1,0 58.2,30.84 45,68.96 l -111.5,320.88 c -13.2,38.05 -54.8,68.95 -92.9,68.95 H 15938 c -38.1,0 -58.3,-30.9 -45,-68.95 l 111.4,-320.88 c 13.3,-38.12 54.9,-68.96 93,-68.96"
           style="fill:#f9ddbf;fill-opacity:1;fill-rule:nonzero;stroke:none"
           id="path290"
           inkscape:connector-curvature="0" /></g><g
         id="g292"
         transform="scale(1.48926)"><path
           d="m 16300,5380.8 c 0,0 -12.6,32.5 -72.4,40.69 -18.5,2.62 -49.5,36.87 -79.1,41.7 -29.5,4.77 1.6,-72.52 21.6,-82.39 19.9,-9.8 64.5,-29.88 67.8,-25.45 3.2,4.43 62.1,25.45 62.1,25.45"
           style="fill:#ffb27d;fill-opacity:1;fill-rule:nonzero;stroke:none"
           id="path294"
           inkscape:connector-curvature="0" /></g><g
         id="g296"
         transform="scale(1.49007)"><path
           d="m 16300,5267.55 c 0,0 -94.1,-30.07 -159.5,-15.77 -65.5,14.29 -167.5,100.06 -139.5,118.92 23.7,16.04 108.9,0 148.3,7.18 39.5,7.18 70.6,20.67 85.6,-2.96 15,-23.62 65.1,-107.37 65.1,-107.37"
           style="fill:#ffb27d;fill-opacity:1;fill-rule:nonzero;stroke:none"
           id="path298"
           inkscape:connector-curvature="0" /></g><g
         id="g300"
         transform="scale(1.4467)"><path
           d="m 16154.6,5596.81 c 3.1,-32.84 20.8,-97.19 44.2,-102.44 21.2,-4.77 65.3,35.04 75.6,62.21 25.6,68.08 -16.8,78.24 -54.2,78.24 -30.5,0 -70.5,15.91 -65.6,-38.01"
           style="fill:#e8945b;fill-opacity:1;fill-rule:nonzero;stroke:none"
           id="path302"
           inkscape:connector-curvature="0" /></g><path
         d="m 11276.6,3856.2 -6901.52,-37.5 c -629.06,306.8 -691.54,1240.6 -263.78,1881.6 39.79,59.5 86.49,109.3 134.76,152.3 0.13,0.2 0.13,0.3 0.26,0.3 213.17,190.1 457.64,248.7 275.92,430.4 -97.85,97.8 -198.29,195.8 -275.92,310.2 -127.72,188.6 -193.07,422.3 -80.62,774.1 263.52,824.9 343.75,1786.5 747.25,2013.1 0.14,0.1 0.14,0.1 0.14,0.3 435.59,244.2 1134.44,71.3 1824.82,-60.8 0,0 588.75,-112.2 1145.15,-609.9 255.04,-228 203.38,-1046.4 205.47,-1047.2 5.34,-2.8 -73.58,-343.3 534.6,-485.8 329.8,-77.2 863.89,372.3 1412.07,196.2 1111.4,-357.1 1503,-2904.5 1241.4,-3517.3"
         style="fill:#ffa561;fill-opacity:1;fill-rule:nonzero;stroke:none"
         id="path304"
         inkscape:connector-curvature="0" /><path
         d="m 5298.72,8692.1 c 419.42,-226.7 -291.32,-1141.9 873.96,-1709 1069.53,-520.6 2190.64,178.6 2579.13,69.9 410.97,-115.1 -1726.83,2258.5 -1726.83,2258.5 -690.48,132.1 -1676.3,313.7 -2111.88,69.4 0,-0.1 0,-0.1 -0.13,-0.2 -220.72,-242.3 -33.67,-461.8 385.75,-688.6"
         style="fill:#f4904d;fill-opacity:1;fill-rule:nonzero;stroke:none"
         id="path306"
         inkscape:connector-curvature="0" /><path
         d="m 5461.52,5880.7 c -374.02,17.2 -838.83,249.2 -1215.2,-27.8 213.17,190.1 457.64,248.7 275.92,430.4 -97.85,97.8 -198.29,195.8 -275.92,310.2 0,0 496.39,-265.5 955.86,-367.5 459.33,-102 633.36,-362.7 259.34,-345.3"
         style="fill:#f4904d;fill-opacity:1;fill-rule:nonzero;stroke:none"
         id="path308"
         inkscape:connector-curvature="0" /><path
         d="m 6372,13227.9 c -10.15,23.9 -128.75,277.6 -531.37,139.2 0,0 204.34,51.5 270.99,-21.5 0,0 -173.7,55.2 -268.99,-20.4 -95.3,-75.6 -86.28,-289.8 -63.01,-352.5 23.26,-62.7 160.51,-241 235.83,-231.8 28.53,3.5 57.88,16.7 83.34,31.8 -7.36,-35.6 -13.23,-73.9 -16.91,-115.7 -33.97,-386.2 251.32,-641.7 372.11,-555.2 77.47,55.5 158.07,-82.1 158.07,-82.1 l 577.28,997.3 c 0,0 -550.57,518.2 -817.34,210.9"
         style="fill:#ffa561;fill-opacity:1;fill-rule:nonzero;stroke:none"
         id="path310"
         inkscape:connector-curvature="0" /><path
         d="m 7454.91,10878.9 c -546.76,-244.4 -957.79,618.2 -922.1,627 54.67,61.8 111.04,282.2 70.98,599.3 l 28.36,-2 475.48,-35.2 c 0,0 7.4,-147.5 23.8,-285.1 10.86,-90.4 25.74,-176.6 45.03,-214.3 5.69,-11.1 108.72,-26 108.97,-26.2 8.01,-8.8 315.35,-598.4 169.48,-663.5"
         style="fill:#ffb27d;fill-opacity:1;fill-rule:nonzero;stroke:none"
         id="path312"
         inkscape:connector-curvature="0" /><path
         d="m 10945.1,3816.3 h -958.18 c 0,0 -22.96,146 27.08,256.8 48,106.3 78.6,135.5 26.5,258.4 60.9,-62.7 238.7,-108 377.2,-89.4 17,-27.5 109.6,-174.7 166.3,-215.5 62.6,-45 341.8,-28.9 361.1,-210.3"
         style="fill:#ffffff;fill-opacity:1;fill-rule:nonzero;stroke:none"
         id="path314"
         inkscape:connector-curvature="0" /><path
         d="m 9257.93,3824.6 h -958.18 c 0,0 -22.97,146 27.08,256.8 47.96,106.3 141.38,177.4 168.85,300 60.88,-62.7 96.35,-149.6 234.88,-131 16.97,-27.5 109.56,-174.8 166.25,-215.5 62.62,-45 341.83,-29 361.12,-210.3"
         style="fill:#ffffff;fill-opacity:1;fill-rule:nonzero;stroke:none"
         id="path316"
         inkscape:connector-curvature="0" /><path
         d="m 10017.4,11325.8 102.9,-142.9 c 0,0 -45,-38.7 -116.7,-100.2 -21.74,-18.3 -34.84,-28.1 -34.84,-28.1 -57.98,-48.7 -129.28,-105.3 -206.74,-167.3 l -0.88,-1.1 c -135.16,-104 -289.01,-218.5 -428.74,-306.9 -12.65,-7.9 -25.15,-15.5 -37.43,-22.9 -84.76,-50.6 -163.01,-90.3 -226.63,-111.8 -7.28,-2.7 -13.69,-4.3 -21.97,-6.2 -185.29,-49.8 -559.2,15.1 -925.96,127 -50.65,15.4 -100.59,31.8 -149.35,47.4 -179.99,60.1 -349.67,128.9 -487.39,199.2 -82.7,41.2 -155.01,82.6 -209.33,123 -19.38,14 -37.83,27.1 -53.43,41.5 -297.73,243.8 -157.71,480.5 -101.15,480.9 70.64,0.8 169.75,-17.8 284.3,-47.2 180.62,-48.7 403.06,-126.1 621.1,-206.7 119.84,-43.8 238.8,-88.7 350.48,-127.8 66.82,-24.9 130.54,-47.4 189.28,-67.6 112.65,-38 206.15,-65.9 271.31,-75.9 42.33,-6.8 120.88,8.1 217.21,34.4 25.56,6.9 52.52,14.8 80.51,23.1 155.27,47.2 341.67,116.3 503.6,180.6 79.74,31.1 153.9,61.6 215.36,87.1 99.43,40.8 164.49,68.4 164.49,68.4"
         style="fill:#ffb27d;fill-opacity:1;fill-rule:nonzero;stroke:none"
         id="path318"
         inkscape:connector-curvature="0" /><path
         d="m 5946.14,8324.4 c 0,0 -214.99,-670.1 264.75,-987.9 642.8,-425.9 2425.09,-62.9 2628.49,-280.4 51.52,-55.1 -104.26,-83 -192.14,-870.5 -126.39,-1132.5 -228.79,-1766 -228.79,-1766 0,0 21.98,-129.5 156.96,-196.4 88.5,-43.8 200.8,-16.7 200.8,-16.7 0,0 1309.09,2874.2 1178.67,3272.9 -225.82,690.6 -1476.07,622.8 -2925.24,1030.9 -884.93,249.2 -1083.5,-185.9 -1083.5,-185.9"
         style="fill:#233862;fill-opacity:1;fill-rule:nonzero;stroke:none"
         id="path320"
         inkscape:connector-curvature="0" /><path
         d="m 6624.49,8339 c 636.38,58.8 2372.93,88.7 2748.47,-169.3 462.21,-317.6 1090.44,-3949 1090.44,-3949 0,0 -48.3,-38.4 -153.4,-48.7 -97.7,-9.6 -310,53 -310,53 0,0 -1032.59,1635.5 -1094.68,2044.7 -62.08,409.2 -30.13,773.1 -204.81,785.4 -174.68,12.2 -2574.58,-264.4 -2779.46,392.5 -160.04,513.1 31.77,1009.4 31.77,1009.4 0,0 84.59,-172.3 671.67,-118"
         style="fill:#2b478b;fill-opacity:1;fill-rule:nonzero;stroke:none"
         id="path322"
         inkscape:connector-curvature="0" /><path
         d="m 7947.73,10441 c 39.37,-144.2 71.75,-273.3 87.62,-360.5 73.25,-401.2 137.5,-1625.7 137.5,-1625.7 -649.99,-1003.3 -2459.32,-701.6 -2459.32,-701.6 -39.88,380.4 112.87,1226.4 205.62,1979.1 22.75,184.5 41.88,363.2 53.75,528.2 10.37,143.9 27.25,271.7 48.99,385.3 154.25,804.5 551,892.8 551,892.8 185.49,-360.2 770.85,-457.2 770.85,-457.2 7.25,202.7 -58.37,461 -58.37,461 74.12,-8.9 320.99,-46.3 391.62,-72.1 83.37,-30.7 776.35,-346.7 776.35,-346.7 0,0 22.25,-509.1 -505.61,-682.6"
         style="fill:#f9ddbf;fill-opacity:1;fill-rule:nonzero;stroke:none"
         id="path324"
         inkscape:connector-curvature="0" /><path
         d="m 7107.67,12067.9 c 0,0 7.3,-147.4 23.8,-285 -260.69,-24.5 -426.99,195.7 -499.31,320.2 l 475.51,-35.2"
         style="fill:#ed985f;fill-opacity:1;fill-rule:nonzero;stroke:none"
         id="path326"
         inkscape:connector-curvature="0" /><path
         d="m 7210.36,11948.2 c 0,0 -613.44,-85.3 -660.67,297.6 -47.22,382.8 -158.2,629.6 231.47,700.3 389.67,70.6 483.94,-66.1 530.78,-190 46.84,-124 56.78,-775.8 -101.58,-807.9"
         style="fill:#ffb27d;fill-opacity:1;fill-rule:nonzero;stroke:none"
         id="path328"
         inkscape:connector-curvature="0" /><path
         d="m 7267.64,12966.7 c -109.1,103.6 -177.81,69.5 -213.81,30 -358.56,143.6 -541.67,-155.9 -541.67,-155.9 -7.53,-279.8 -186.41,-461.4 -186.41,-461.4 0,0 120.5,-55.5 370.67,42.5 76.41,29.9 140,94.6 191.56,170 -83.11,-188 -209.95,-331.7 -209.95,-331.7 291.08,180.4 362.53,624.6 369.32,671.5 41.64,-29.1 124.56,-93.3 155.88,-162.3 42.56,-93.7 80.88,-292.8 138.54,-278.8 0,0 89.48,320.8 -74.13,476.1"
         style="fill:#f4904d;fill-opacity:1;fill-rule:nonzero;stroke:none"
         id="path330"
         inkscape:connector-curvature="0" /><path
         d="m 10017.4,11325.8 c 0,0 49.3,43.7 78.1,86.9 28.8,43.2 40.3,86.4 95.1,123.8 54.7,37.4 115.2,135.4 123.8,118.1 8.7,-17.3 -28.8,-123.8 -25.9,-135.4 2.9,-11.5 155.5,-44.5 213.1,-28 57.6,16.5 201.6,62.6 198.8,33.8 -2.9,-28.8 -155.6,-190.1 -204.5,-218.9 -49,-28.8 -195.9,-20.2 -253.5,-40.3 -57.6,-20.2 -122.1,-82.9 -122.1,-82.9 l -102.9,142.9"
         style="fill:#ffb27d;fill-opacity:1;fill-rule:nonzero;stroke:none"
         id="path332"
         inkscape:connector-curvature="0" /><path
         d="m 10395.1,11471.2 c 0,0 149.7,121 215,105.6 l -107.5,-105.6 h -107.5"
         style="fill:#ffb27d;fill-opacity:1;fill-rule:nonzero;stroke:none"
         id="path334"
         inkscape:connector-curvature="0" /><path
         d="m 10525.6,11344.5 226.6,151.7 c 0,0 -41.8,15.8 -87.8,0 -46.1,-15.9 -138.8,-151.7 -138.8,-151.7"
         style="fill:#ffb27d;fill-opacity:1;fill-rule:nonzero;stroke:none"
         id="path336"
         inkscape:connector-curvature="0" /><path
         d="m 6662.11,8832 c -10.5,5.8 -710.82,215.5 -742.96,900.3 22.75,184.5 41.88,363.2 53.75,528.2 10.37,143.9 27.25,271.7 48.99,385.3 112.26,17.3 246.88,-103.4 307.25,-282.6 124.25,-369 329.72,-1515.9 332.97,-1531.2"
         style="fill:#f2ccaa;fill-opacity:1;fill-rule:nonzero;stroke:none"
         id="path338"
         inkscape:connector-curvature="0" /><path
         d="m 6745.71,8731 c -6.75,5.1 -11.99,9.9 -18.61,16.4 -154.93,139 -317.1,517.5 -432.25,917.3 -16.02,55.1 -30.63,110.3 -45.28,163.8 -51.84,199.3 -89.69,394.3 -107.21,561.2 -11.43,99.6 -16.55,189.8 -11.93,263.1 1.27,25.9 2.27,50.5 6.14,73.2 45.59,415 343.69,427.7 377.47,376.4 42.58,-63.7 84.23,-164.9 125.31,-286.4 62.56,-193.1 123.78,-441.2 179.49,-687.2 31.02,-134.9 198.4,-928.7 227.81,-993.9 18.84,-42.5 -243.67,-449 -300.94,-403.9"
         style="fill:#ffb27d;fill-opacity:1;fill-rule:nonzero;stroke:none"
         id="path340"
         inkscape:connector-curvature="0" /><path
         d="m 6476.77,11235.5 c 0,0 -289.89,-140.8 -391.08,-333.5 -101.19,-192.8 -113.61,-808.1 43.05,-1608.1 0,0 472.39,31.1 781.18,440.5 0,0 -114.68,1616.8 -433.15,1501.1"
         style="fill:#f9ddbf;fill-opacity:1;fill-rule:nonzero;stroke:none"
         id="path342"
         inkscape:connector-curvature="0" /><path
         d="m 6595.7,11665.1 c 0,0 -105.72,-65.7 -105.93,-163.3 0,0 124.86,-341.2 853.97,-420.4 0,0 -671.06,330 -748.04,583.7"
         style="fill:#f2ccaa;fill-opacity:1;fill-rule:nonzero;stroke:none"
         id="path344"
         inkscape:connector-curvature="0" /><path
         d="m 7165.06,11583.9 c 0,0 183.93,-337.9 178.68,-502.5 0,0 12.5,374.1 -13.56,461 -26.06,86.9 -181.16,122.7 -181.16,122.7 l 16.04,-81.2"
         style="fill:#f2ccaa;fill-opacity:1;fill-rule:nonzero;stroke:none"
         id="path346"
         inkscape:connector-curvature="0" /><path
         d="m 7029.85,12152.2 c 6.25,0 64.58,-52.1 141.66,-37.5 77.09,14.5 76.37,75 76.37,75 0,0 -52.61,8.3 -98.86,0 -46.25,-8.4 -119.17,-37.5 -119.17,-37.5"
         style="fill:#ffffff;fill-opacity:1;fill-rule:nonzero;stroke:none"
         id="path348"
         inkscape:connector-curvature="0" /><path
         d="m 8406.64,8851.4 -210.54,38.4 c -55.54,10.2 -76.7,60.6 -47.26,112.6 l 247.98,438.1 c 29.43,52 98.32,86 153.85,75.8 l 210.54,-38.5 c 55.54,-10.1 76.7,-60.5 47.26,-112.5 l -247.98,-438.1 c -29.44,-52 -98.32,-86 -153.85,-75.8"
         style="fill:#77a4e5;fill-opacity:1;fill-rule:nonzero;stroke:none"
         id="path350"
         inkscape:connector-curvature="0" /><path
         d="m 8316.24,8852.2 h -214.02 c -56.46,0 -86.33,45.8 -66.72,102.3 l 165.2,475.5 c 19.61,56.5 81.27,102.2 137.73,102.2 h 214.02 c 56.46,0 86.32,-45.7 66.72,-102.2 l -165.2,-475.5 c -19.61,-56.5 -81.27,-102.3 -137.73,-102.3"
         style="fill:#f99746;fill-opacity:1;fill-rule:nonzero;stroke:none"
         id="path352"
         inkscape:connector-curvature="0" /><path
         d="m 7956.56,9047.8 c 0,0 202.07,162.3 278.66,168.7 76.59,6.4 264.26,-32.2 246.65,-87.4 -17.61,-55.2 -104.5,-87.3 -196.15,-136 -91.66,-48.6 -129.14,-103.5 -202.39,-118.9 -73.26,-15.5 -155.98,-15 -155.98,-15 l 29.21,188.6"
         style="fill:#ffb27d;fill-opacity:1;fill-rule:nonzero;stroke:none"
         id="path354"
         inkscape:connector-curvature="0" /><path
         d="m 7956.56,9047.8 c 0,0 115.5,126.1 140.63,182.9 3.17,7.1 12.24,9.2 18.46,4.5 17.23,-13.1 39.67,-42.5 1.83,-93.9 -54.47,-74.1 -160.92,-93.5 -160.92,-93.5"
         style="fill:#ffb27d;fill-opacity:1;fill-rule:nonzero;stroke:none"
         id="path356"
         inkscape:connector-curvature="0" /><path
         d="m 6745.71,8731 c 21.27,1.9 629.06,-79.6 1181.64,128.2 l 29.21,188.6 c 0,0 -568.1,7.5 -937.1,135.7 C 6650.45,9311.7 6745.71,8731 6745.71,8731"
         style="fill:#ffb27d;fill-opacity:1;fill-rule:nonzero;stroke:none"
         id="path358"
         inkscape:connector-curvature="0" /><path
         d="m 13778.6,10097.1 c 0,0 436.9,-662.9 474.6,-1122.4 0,0 -60.3,-135.6 -203.4,-52.7 -143.1,82.9 -399.2,436.9 -399.2,436.9 l 128,738.2"
         style="fill:#ffb27d;fill-opacity:1;fill-rule:nonzero;stroke:none"
         id="path360"
         inkscape:connector-curvature="0" /><path
         d="m 13055.8,5904.4 c -8.2,-74.6 -1.1,-188.1 15.7,-321.7 66,-529.2 281.7,-1374.4 281.7,-1374.4 l 270.1,-32.8 c -19.7,149.5 36.5,721.8 111.2,1356.1 112.6,956.9 267.4,2054.7 267.4,2054.7 0,0 -588,486 -934.6,351.8 -346.5,-134.4 29.2,-1662.8 -11.5,-2033.7"
         style="fill:#ed975d;fill-opacity:1;fill-rule:nonzero;stroke:none"
         id="path362"
         inkscape:connector-curvature="0" /><path
         d="m 13071.5,5582.7 c 66,-529.2 281.7,-1374.4 281.7,-1374.4 l 270.1,-32.8 c -19.7,149.5 36.5,721.8 111.2,1356.1 -96.2,-16.9 -357,-50.5 -575.2,31.7 -33.6,12.7 -62.7,18.6 -87.8,19.4"
         style="fill:#dfebfd;fill-opacity:1;fill-rule:nonzero;stroke:none"
         id="path364"
         inkscape:connector-curvature="0" /><path
         d="m 13318.9,11514.4 c 0,0 142.4,68.4 302.2,0 159.8,-68.3 276.2,-359.3 204.6,-631.2 -71.6,-271.8 170.1,-276.4 58.2,-494.3 -39.7,-77.4 -565,-143.1 -582.9,157.9 -11.2,186.6 157.7,195.8 108.5,398.5 -49.3,202.7 -90.6,569.1 -90.6,569.1"
         style="fill:#2c3a64;fill-opacity:1;fill-rule:nonzero;stroke:none"
         id="path366"
         inkscape:connector-curvature="0" /><path
         d="m 12564.7,5962.3 c -15.9,-91.4 -11.6,-244.6 3.7,-423.3 45.9,-539.5 192.5,-1310.6 192.5,-1310.6 l 267.2,-61.7 c -10.2,147.5 77.1,702.7 187.2,1323.8 171.2,966.1 397.4,2092.1 397.4,2092.1 0,0 -557.1,521.4 -911.2,408.6 -354.1,-112.6 -73.5,-1661.3 -136.8,-2028.9"
         style="fill:#ffb27d;fill-opacity:1;fill-rule:nonzero;stroke:none"
         id="path368"
         inkscape:connector-curvature="0" /><path
         d="m 13620,4228.8 c 0,0 64.2,-117.8 186.5,-145.2 77.1,-17.2 142.9,-57.7 183.6,-114.3 34.5,-47.7 0.5,-114.4 -58.4,-114.1 l -621.4,3.6 c -53,0.3 -94,46.2 -88.4,98.8 4.9,46 10,99.6 12.4,140.7 5.1,89.7 102.3,170.3 102.3,170.3 0,0 85.3,-48.9 118.2,-54.7 71.6,-12.5 165.2,14.9 165.2,14.9"
         style="fill:#212d4c;fill-opacity:1;fill-rule:nonzero;stroke:none"
         id="path370"
         inkscape:connector-curvature="0" /><path
         d="m 13661.2,11431.8 c -4.4,7.2 -186.1,294.6 -525.8,351.9 -275.2,46.4 -532.7,-148 -575.1,-423.8 -42.5,-277.2 0.9,-636.4 453.1,-765.8 l 647.8,837.7"
         style="fill:#2c3a64;fill-opacity:1;fill-rule:nonzero;stroke:none"
         id="path372"
         inkscape:connector-curvature="0" /><path
         d="m 13578.1,10196.6 -511.8,-304 -129.3,360.3 c 0,0 59.3,131.2 76.6,341.2 7.2,88.3 7,190.5 -8.3,302.8 l 445.1,-193.3 c 0,0 -7.8,-40.5 -10.9,-99.7 -3.3,-64.1 -1.2,-150 22.1,-230.2 20,-68.9 55.5,-133.6 116.5,-177.1"
         style="fill:#ffb27d;fill-opacity:1;fill-rule:nonzero;stroke:none"
         id="path374"
         inkscape:connector-curvature="0" /><path
         d="m 13461.4,10373.7 c -245.5,-9 -448,220.4 -448,220.4 l 425.9,9.8 c -3.3,-64.1 -1.1,-149.9 22.1,-230.2"
         style="fill:#ed975d;fill-opacity:1;fill-rule:nonzero;stroke:none"
         id="path376"
         inkscape:connector-curvature="0" /><path
         d="m 13571.6,10517.8 c 0,0 -480.6,-160.1 -674,217.9 -208.7,407.9 -28.5,726.3 136.2,757.4 328.4,62.2 528.8,-51.8 595.4,-181.5 66.7,-129.7 207.8,-707.8 -57.6,-793.8"
         style="fill:#ffb27d;fill-opacity:1;fill-rule:nonzero;stroke:none"
         id="path378"
         inkscape:connector-curvature="0" /><path
         d="m 13363.9,10724.3 c 0,0 23.6,-49.1 150.8,-12.6 0,0 106.8,30.7 90.9,86.9 0,0 -114,17.3 -241.7,-74.3"
         style="fill:#ffffff;fill-opacity:1;fill-rule:nonzero;stroke:none"
         id="path380"
         inkscape:connector-curvature="0" /><path
         d="m 14096.3,6087 c -578.2,-197.2 -1604.2,77.2 -1743.1,209.9 -7,6.6 14.9,306.4 48.5,691.1 47.1,539.7 117.3,1246.9 162.3,1549.1 0.5,4.1 1.1,8.2 1.7,12.2 10.5,69.3 14,139.4 10.3,209.4 -1.6,28.2 -4.2,56.4 -8.1,84.4 l -105.3,776.7 -33.1,243.8 c -17.5,129 54.2,253.7 174.2,303.9 109.4,45.6 189.6,56.3 327.4,84.9 85.6,-77.2 252.1,-188.3 428.1,-153.9 132.4,26 158.3,97.3 151.2,173.3 33.5,-3.4 64.7,-7 93.3,-11.1 169.9,-23 304.4,-154.8 331.5,-324 98.9,-617.3 264.7,-3814.4 161.1,-3849.7"
         style="fill:#ffffff;fill-opacity:1;fill-rule:nonzero;stroke:none"
         id="path382"
         inkscape:connector-curvature="0" /><path
         d="m 13234.8,11448.3 c 0,0 45.6,-450.9 -382.2,-610.7 -170.1,-63.5 -258.6,625.1 96.8,762.6 355.4,137.6 705.9,-25.8 747.8,-266.1 41.9,-240.4 10,-290.6 10,-290.6 0,0 -166.4,457.4 -472.4,404.8"
         style="fill:#2c3a64;fill-opacity:1;fill-rule:nonzero;stroke:none"
         id="path384"
         inkscape:connector-curvature="0" /><path
         d="m 13871.1,10096.6 222.5,-380.6 c 0,0 -28.6,-176.6 -195.1,-194.1 -166.5,-17.6 -27.4,574.7 -27.4,574.7"
         style="fill:#ffffff;fill-opacity:1;fill-rule:nonzero;stroke:none"
         id="path386"
         inkscape:connector-curvature="0" /><path
         d="m 12704,11510.6 c 0,0 -142.4,77 -302.3,0 -159.8,-77 -276.2,-404.7 -204.6,-710.7 71.6,-306.1 -170,-311.2 -58.1,-556.7 39.6,-87.1 565,-161.1 582.9,177.9 11.1,210 -157.8,220.4 -108.6,448.7 49.3,228.2 90.7,640.8 90.7,640.8"
         style="fill:#2c3a64;fill-opacity:1;fill-rule:nonzero;stroke:none"
         id="path388"
         inkscape:connector-curvature="0" /><path
         d="m 12568.4,5539 c 45.9,-539.5 192.5,-1310.6 192.5,-1310.6 l 267.2,-61.7 c -10.2,147.5 77.1,702.7 187.2,1323.8 -142.6,-14.9 -405.1,-26.3 -646.9,48.5"
         style="fill:#ffffff;fill-opacity:1;fill-rule:nonzero;stroke:none"
         id="path390"
         inkscape:connector-curvature="0" /><path
         d="m 13035.7,4228.8 c 0,0 64.2,-117.8 186.5,-145.2 77,-17.2 142.8,-57.7 183.6,-114.3 34.4,-47.7 0.4,-114.4 -58.4,-114.1 l -621.5,3.6 c -52.9,0.3 -94,46.2 -88.4,98.8 4.9,46 10.1,99.6 12.4,140.7 5.1,89.7 102.3,170.3 102.3,170.3 0,0 85.3,-48.9 118.2,-54.7 71.6,-12.5 165.3,14.9 165.3,14.9"
         style="fill:#2c3a64;fill-opacity:1;fill-rule:nonzero;stroke:none"
         id="path392"
         inkscape:connector-curvature="0" /><path
         d="m 14231.8,8417.3 -282.3,31.4 c -49.4,5.5 -85.2,50.3 -79.7,99.7 l 60.4,544.4 c 5.5,49.3 50.4,85.2 99.7,79.7 l 282.4,-31.3 c 49.3,-5.5 85.2,-50.4 79.7,-99.7 l -60.5,-544.4 c -5.5,-49.4 -50.3,-85.2 -99.7,-79.8"
         style="fill:#b5453c;fill-opacity:1;fill-rule:nonzero;stroke:none"
         id="path394"
         inkscape:connector-curvature="0" /><path
         d="m 13532.9,8699.3 c 0,0 17.6,35.3 33.1,47.3 15.6,12 26.9,42.4 33.2,29.7 6.4,-12.7 -5.6,-44.5 -5.6,-44.5 l -60.7,-32.5"
         style="fill:#ffb27d;fill-opacity:1;fill-rule:nonzero;stroke:none"
         id="path396"
         inkscape:connector-curvature="0" /><path
         d="m 14030.4,8374 -278.9,-53.9 c -48.7,-9.4 -96.3,22.7 -105.7,71.5 l -104,537.8 c -9.4,48.7 22.8,96.3 71.5,105.7 l 279,53.9 c 48.7,9.4 96.3,-22.7 105.7,-71.5 l 103.9,-537.8 c 9.4,-48.7 -22.7,-96.3 -71.5,-105.7"
         style="fill:#b0d4ff;fill-opacity:1;fill-rule:nonzero;stroke:none"
         id="path398"
         inkscape:connector-curvature="0" /><path
         d="m 13507.4,8681 c 0,0 113,82.8 184.6,105.4 71.5,22.6 76.7,-18.2 70.6,-57.4 -8.5,-54.6 -55.5,-96.1 -85.7,-132.8 -30,-36.6 -79.1,-59.3 -113,-36.7 -33.9,22.6 -56.5,121.5 -56.5,121.5"
         style="fill:#ffb27d;fill-opacity:1;fill-rule:nonzero;stroke:none"
         id="path400"
         inkscape:connector-curvature="0" /><path
         d="m 14394.4,8965.3 c 0,0 -135.6,63.1 -163.8,-4.7 -28.3,-67.8 104.5,-200.6 152.5,-172.3 48,28.2 45.2,165.7 11.3,177"
         style="fill:#ffb27d;fill-opacity:1;fill-rule:nonzero;stroke:none"
         id="path402"
         inkscape:connector-curvature="0" /><path
         d="m 12422.7,9844.8 c 0,0 -11.3,-798.5 41.4,-1077.2 52.8,-278.7 1116.8,-216.6 1116.8,-216.6 l -33.9,141.3 c 0,0 -663.9,243.5 -676.1,274.9 -64,165.7 -18.8,549.9 -26.3,655.3 -7.6,105.5 -421.9,222.3 -421.9,222.3"
         style="fill:#ffb27d;fill-opacity:1;fill-rule:nonzero;stroke:none"
         id="path404"
         inkscape:connector-curvature="0" /><path
         d="m 12442.5,9986 c 0,0 -70.6,-186.4 -93.2,-559.3 0,0 169.5,-101.7 519.7,-90.4 350.3,11.3 -67.8,531.1 -67.8,531.1 l -358.7,118.6"
         style="fill:#ffffff;fill-opacity:1;fill-rule:nonzero;stroke:none"
         id="path406"
         inkscape:connector-curvature="0" /><g
         id="g408"
         transform="scale(1.1665)"><path
           d="m 16120.1,5053.99 h -5953.6 c -99.3,0 -179.9,80.5 -179.9,179.77 v 0 c 0,99.36 80.6,179.86 179.9,179.86 h 5953.6 c 99.3,0 179.9,-80.5 179.9,-179.86 v 0 c 0,-99.27 -80.6,-179.77 -179.9,-179.77"
           style="fill:#2c3a64;fill-opacity:1;fill-rule:nonzero;stroke:none"
           id="path410"
           inkscape:connector-curvature="0" /></g><g
         id="g412"
         transform="scale(1.14495)"><path
           d="m 16077.5,5169.48 h -295.1 l 436.1,-1760.95 c 5.4,-21.75 24.9,-36.94 47.3,-36.85 v 0 c 19.3,0.08 34.2,17.03 31.8,36.24 l -220.1,1761.56"
           style="fill:#2c3a64;fill-opacity:1;fill-rule:nonzero;stroke:none"
           id="path414"
           inkscape:connector-curvature="0" /></g><path
         d="m 12344.5,5918.8 h 337.9 l -499.3,-2016.2 c -6.2,-24.9 -28.5,-42.3 -54.1,-42.2 v 0 c -22.1,0.1 -39.2,19.5 -36.5,41.5 l 252,2016.9"
         style="fill:#2c3a64;fill-opacity:1;fill-rule:nonzero;stroke:none"
         id="path416"
         inkscape:connector-curvature="0" /><g
         id="g418"
         transform="scale(1.13147)"><path
           d="m 16300,4345.31 h -5396.5 v 92.71 H 16300 v -92.71"
           style="fill:#2c3a64;fill-opacity:1;fill-rule:nonzero;stroke:none"
           id="path420"
           inkscape:connector-curvature="0" /></g><g
         id="g422"
         transform="scale(1.10073)"><path
           d="m 16252.7,6281.74 h -4591.6 c -26.1,0 -47.4,21.17 -47.4,47.33 v 15.99 c 0,26.17 21.3,47.34 47.4,47.34 h 4591.6 c 26.1,0 47.3,-21.17 47.3,-47.34 v -15.99 c 0,-26.16 -21.2,-47.33 -47.3,-47.33"
           style="fill:#f2ccaa;fill-opacity:1;fill-rule:nonzero;stroke:none"
           id="path424"
           inkscape:connector-curvature="0" /></g><path
         d="m 13757.2,7036.3 h -195.8 l 37,456.7 h 119.6 l 39.2,-456.7"
         style="fill:#e8945b;fill-opacity:1;fill-rule:nonzero;stroke:none"
         id="path426"
         inkscape:connector-curvature="0" /><path
         d="m 13695.2,7493 h -75.1 v 27.8 h 75.1 V 7493"
         style="fill:#e8945b;fill-opacity:1;fill-rule:nonzero;stroke:none"
         id="path428"
         inkscape:connector-curvature="0" /><path
         d="m 13599.7,7565.6 c 0,32.5 26.3,58.7 58.8,58.7 32.4,0 58.7,-26.2 58.7,-58.7 0,-32.4 -26.3,-58.7 -58.7,-58.7 -32.5,0 -58.8,26.3 -58.8,58.7"
         style="fill:#e8945b;fill-opacity:1;fill-rule:nonzero;stroke:none"
         id="path430"
         inkscape:connector-curvature="0" /><path
         d="m 15761.7,7036.3 h -195.8 l 37,456.7 h 119.6 l 39.2,-456.7"
         style="fill:#2c3a64;fill-opacity:1;fill-rule:nonzero;stroke:none"
         id="path432"
         inkscape:connector-curvature="0" /><path
         d="m 15699.7,7493 h -75 v 27.8 h 75 V 7493"
         style="fill:#2c3a64;fill-opacity:1;fill-rule:nonzero;stroke:none"
         id="path434"
         inkscape:connector-curvature="0" /><path
         d="m 15604.3,7565.6 c 0,32.5 26.3,58.7 58.7,58.7 32.4,0 58.7,-26.2 58.7,-58.7 0,-32.4 -26.3,-58.7 -58.7,-58.7 -32.4,0 -58.7,26.3 -58.7,58.7"
         style="fill:#2c3a64;fill-opacity:1;fill-rule:nonzero;stroke:none"
         id="path436"
         inkscape:connector-curvature="0" /><path
         d="m 14810.1,7036.3 h -195.7 l 36.9,456.7 h 119.7 l 39.1,-456.7"
         style="fill:#ffffff;fill-opacity:1;fill-rule:nonzero;stroke:none"
         id="path438"
         inkscape:connector-curvature="0" /><path
         d="m 14748.1,7493 h -75 v 27.8 h 75 V 7493"
         style="fill:#ffffff;fill-opacity:1;fill-rule:nonzero;stroke:none"
         id="path440"
         inkscape:connector-curvature="0" /><path
         d="m 14652.7,7565.6 c 0,32.5 26.3,58.7 58.7,58.7 32.5,0 58.8,-26.2 58.8,-58.7 0,-32.4 -26.3,-58.7 -58.8,-58.7 -32.4,0 -58.7,26.3 -58.7,58.7"
         style="fill:#ffffff;fill-opacity:1;fill-rule:nonzero;stroke:none"
         id="path442"
         inkscape:connector-curvature="0" /><g
         id="g444"
         transform="scale(1.00833)"><path
           d="m 16300,6976.92 h -223 v 223.14 h 223 v -223.14"
           style="fill:#afcdfb;fill-opacity:1;fill-rule:nonzero;stroke:none"
           id="path446"
           inkscape:connector-curvature="0" /></g><path
         d="m 16300,7035 h -224.9 v 225 h 224.9 v -225"
         style="fill:#ffffff;fill-opacity:1;fill-rule:nonzero;stroke:none"
         id="path448"
         inkscape:connector-curvature="0" /><path
         d="m 16170.7,7147.4 c 0,9.3 7.6,16.8 16.9,16.8 9.3,0 16.8,-7.5 16.8,-16.8 0,-9.4 -7.5,-16.9 -16.8,-16.9 -9.3,0 -16.9,7.5 -16.9,16.9"
         style="fill:#2e3552;fill-opacity:1;fill-rule:nonzero;stroke:none"
         id="path450"
         inkscape:connector-curvature="0" /><path
         d="m 16100.4,7218.8 c 0,9.3 7.5,16.8 16.9,16.8 9.3,0 16.8,-7.5 16.8,-16.8 0,-9.3 -7.5,-16.9 -16.8,-16.9 -9.4,0 -16.9,7.6 -16.9,16.9"
         style="fill:#2e3552;fill-opacity:1;fill-rule:nonzero;stroke:none"
         id="path452"
         inkscape:connector-curvature="0" /><path
         d="m 16241,7218.8 c 0,9.3 7.6,16.8 16.9,16.8 9.3,0 16.9,-7.5 16.9,-16.8 0,-9.3 -7.6,-16.9 -16.9,-16.9 -9.3,0 -16.9,7.6 -16.9,16.9"
         style="fill:#2e3552;fill-opacity:1;fill-rule:nonzero;stroke:none"
         id="path454"
         inkscape:connector-curvature="0" /><path
         d="m 16100.4,7073.8 c 0,9.3 7.5,16.9 16.9,16.9 9.3,0 16.8,-7.6 16.8,-16.9 0,-9.3 -7.5,-16.9 -16.8,-16.9 -9.4,0 -16.9,7.6 -16.9,16.9"
         style="fill:#2e3552;fill-opacity:1;fill-rule:nonzero;stroke:none"
         id="path456"
         inkscape:connector-curvature="0" /><path
         d="m 16241,7073.8 c 0,9.3 7.6,16.9 16.9,16.9 9.3,0 16.9,-7.6 16.9,-16.9 0,-9.3 -7.6,-16.9 -16.9,-16.9 -9.3,0 -16.9,7.6 -16.9,16.9"
         style="fill:#2e3552;fill-opacity:1;fill-rule:nonzero;stroke:none"
         id="path458"
         inkscape:connector-curvature="0" /><g
         id="g460"
         transform="scale(1.00239)"><path
           d="m 16280,7201.57 c 0,9.28 4.4,16.76 9.9,16.76 5.6,0 10.1,-7.48 10.1,-16.76 0,-9.28 -4.5,-16.86 -10.1,-16.86 -5.5,0 -9.9,7.58 -9.9,16.86"
           style="fill:#2e3552;fill-opacity:1;fill-rule:nonzero;stroke:none"
           id="path462"
           inkscape:connector-curvature="0" /></g><g
         id="g464"
         transform="scale(1.00754)"><path
           d="m 16280,7164.78 c 0,9.23 4.5,16.67 10.1,16.67 5.4,0 9.9,-7.44 9.9,-16.67 0,-9.23 -4.5,-16.78 -9.9,-16.78 -5.6,0 -10.1,7.55 -10.1,16.78"
           style="fill:#2e3552;fill-opacity:1;fill-rule:nonzero;stroke:none"
           id="path466"
           inkscape:connector-curvature="0" /></g><g
         id="g468"
         transform="scale(1.00239)"><path
           d="m 16280,7056.92 c 0,9.27 4.4,16.85 9.9,16.85 5.6,0 10.1,-7.58 10.1,-16.85 0,-9.28 -4.5,-16.87 -10.1,-16.87 -5.5,0 -9.9,7.59 -9.9,16.87"
           style="fill:#2e3552;fill-opacity:1;fill-rule:nonzero;stroke:none"
           id="path470"
           inkscape:connector-curvature="0" /></g><g
         id="g472"
         transform="scale(1.00754)"><path
           d="m 16280,7020.86 c 0,9.23 4.5,16.78 10.1,16.78 5.4,0 9.9,-7.55 9.9,-16.78 0,-9.23 -4.5,-16.77 -9.9,-16.77 -5.6,0 -10.1,7.54 -10.1,16.77"
           style="fill:#2e3552;fill-opacity:1;fill-rule:nonzero;stroke:none"
           id="path474"
           inkscape:connector-curvature="0" /></g><path
         d="m 14897.5,7035 h 225 v 225 h -225 v -225"
         style="fill:#afcdfb;fill-opacity:1;fill-rule:nonzero;stroke:none"
         id="path476"
         inkscape:connector-curvature="0" /><path
         d="m 15033.2,7035 h 224.9 v 225 h -224.9 v -225"
         style="fill:#ffffff;fill-opacity:1;fill-rule:nonzero;stroke:none"
         id="path478"
         inkscape:connector-curvature="0" /><path
         d="m 15162.5,7147.4 c 0,9.3 -7.5,16.8 -16.8,16.8 -9.4,0 -16.9,-7.5 -16.9,-16.8 0,-9.4 7.5,-16.9 16.9,-16.9 9.3,0 16.8,7.5 16.8,16.9"
         style="fill:#2e3552;fill-opacity:1;fill-rule:nonzero;stroke:none"
         id="path480"
         inkscape:connector-curvature="0" /><path
         d="m 15232.9,7218.8 c 0,9.3 -7.6,16.8 -16.9,16.8 -9.3,0 -16.9,-7.5 -16.9,-16.8 0,-9.3 7.6,-16.9 16.9,-16.9 9.3,0 16.9,7.6 16.9,16.9"
         style="fill:#2e3552;fill-opacity:1;fill-rule:nonzero;stroke:none"
         id="path482"
         inkscape:connector-curvature="0" /><path
         d="m 15092.2,7218.8 c 0,9.3 -7.5,16.8 -16.9,16.8 -9.3,0 -16.8,-7.5 -16.8,-16.8 0,-9.3 7.5,-16.9 16.8,-16.9 9.4,0 16.9,7.6 16.9,16.9"
         style="fill:#2e3552;fill-opacity:1;fill-rule:nonzero;stroke:none"
         id="path484"
         inkscape:connector-curvature="0" /><path
         d="m 15232.9,7073.8 c 0,9.3 -7.6,16.9 -16.9,16.9 -9.3,0 -16.9,-7.6 -16.9,-16.9 0,-9.3 7.6,-16.9 16.9,-16.9 9.3,0 16.9,7.6 16.9,16.9"
         style="fill:#2e3552;fill-opacity:1;fill-rule:nonzero;stroke:none"
         id="path486"
         inkscape:connector-curvature="0" /><path
         d="m 15092.2,7073.8 c 0,9.3 -7.5,16.9 -16.9,16.9 -9.3,0 -16.8,-7.6 -16.8,-16.9 0,-9.3 7.5,-16.9 16.8,-16.9 9.4,0 16.9,7.6 16.9,16.9"
         style="fill:#2e3552;fill-opacity:1;fill-rule:nonzero;stroke:none"
         id="path488"
         inkscape:connector-curvature="0" /><path
         d="m 15014.4,7218.8 c 0,9.3 -4.5,16.8 -10.1,16.8 -5.6,0 -10.1,-7.5 -10.1,-16.8 0,-9.3 4.5,-16.9 10.1,-16.9 5.6,0 10.1,7.6 10.1,16.9"
         style="fill:#2e3552;fill-opacity:1;fill-rule:nonzero;stroke:none"
         id="path490"
         inkscape:connector-curvature="0" /><path
         d="m 14930.4,7218.8 c 0,9.3 -4.5,16.8 -10,16.8 -5.6,0 -10.1,-7.5 -10.1,-16.8 0,-9.3 4.5,-16.9 10.1,-16.9 5.5,0 10,7.6 10,16.9"
         style="fill:#2e3552;fill-opacity:1;fill-rule:nonzero;stroke:none"
         id="path492"
         inkscape:connector-curvature="0" /><path
         d="m 15014.4,7073.8 c 0,9.3 -4.5,16.9 -10.1,16.9 -5.6,0 -10.1,-7.6 -10.1,-16.9 0,-9.3 4.5,-16.9 10.1,-16.9 5.6,0 10.1,7.6 10.1,16.9"
         style="fill:#2e3552;fill-opacity:1;fill-rule:nonzero;stroke:none"
         id="path494"
         inkscape:connector-curvature="0" /><path
         d="m 14930.4,7073.8 c 0,9.3 -4.5,16.9 -10,16.9 -5.6,0 -10.1,-7.6 -10.1,-16.9 0,-9.3 4.5,-16.9 10.1,-16.9 5.5,0 10,7.6 10,16.9"
         style="fill:#2e3552;fill-opacity:1;fill-rule:nonzero;stroke:none"
         id="path496"
         inkscape:connector-curvature="0" /><g
         id="g498"
         transform="scale(1.38509)"><path
           d="m 16300,2784.07 h -1458.5 v 289.81 H 16300 v -289.81"
           style="fill:#f2ccaa;fill-opacity:1;fill-rule:nonzero;stroke:none"
           id="path500"
           inkscape:connector-curvature="0" /></g><g
         id="g502"
         transform="scale(1.33642)"><path
           d="m 16300,2885.46 h -1511.6 v 300.36 H 16300 v -300.36"
           style="fill:#f9ddbf;fill-opacity:1;fill-rule:nonzero;stroke:none"
           id="path504"
           inkscape:connector-curvature="0" /></g><g
         id="g506"
         transform="scale(1.38764)"><path
           d="m 16300,2973.11 h -1528.9 v 239.76 H 16300 v -239.76"
           style="fill:#fcd7b9;fill-opacity:1;fill-rule:nonzero;stroke:none"
           id="path508"
           inkscape:connector-curvature="0" /></g><g
         id="g510"
         transform="scale(1.33812)"><path
           d="m 16300,3083.13 h -1585.5 v 248.63 H 16300 v -248.63"
           style="fill:#ffead7;fill-opacity:1;fill-rule:nonzero;stroke:none"
           id="path512"
           inkscape:connector-curvature="0" /></g><g
         id="g514"
         transform="scale(1.03909)"><path
           d="m 16300,6077.36 h -1944.1 v 386.3 H 16300 v -386.3"
           style="fill:#f2ccaa;fill-opacity:1;fill-rule:nonzero;stroke:none"
           id="path516"
           inkscape:connector-curvature="0" /></g><path
         d="m 16143.8,6314.9 h -2020.1 v 401.4 h 2020.1 v -401.4"
         style="fill:#f9ddbf;fill-opacity:1;fill-rule:nonzero;stroke:none"
         id="path518"
         inkscape:connector-curvature="0" /><g
         id="g520"
         transform="scale(1.04163)"><path
           d="m 16300,6321.14 h -2036.8 v 319.4 H 16300 v -319.4"
           style="fill:#fcd7b9;fill-opacity:1;fill-rule:nonzero;stroke:none"
           id="path522"
           inkscape:connector-curvature="0" /></g><path
         d="M 16171.5,6584.3 H 14049.9 V 6917 h 2121.6 v -332.7"
         style="fill:#ffead7;fill-opacity:1;fill-rule:nonzero;stroke:none"
         id="path524"
         inkscape:connector-curvature="0" /><g
         id="g526"
         transform="scale(1.87847)"><path
           d="M 16281.5,2008.93 H 975.865 c -10.173,0 -18.499,8.3 -18.499,18.52 v 9.05 c 0,10.22 8.326,18.53 18.499,18.53 H 16281.5 c 10.2,0 18.5,-8.31 18.5,-18.53 v -9.05 c 0,-10.22 -8.3,-18.52 -18.5,-18.52"
           style="fill:#c5dbfb;fill-opacity:1;fill-rule:nonzero;stroke:none"
           id="path528"
           inkscape:connector-curvature="0" /></g></g></g></svg>