<?xml version="1.0" encoding="utf-8"?>
<!-- Generator: Adobe Illustrator 23.0.2, SVG Export Plug-In . SVG Version: 6.00 Build 0)  -->
<svg version="1.1" id="OBJECTS" xmlns="http://www.w3.org/2000/svg" xmlns:xlink="http://www.w3.org/1999/xlink" x="0px" y="0px"
	 viewBox="0 0 512 159.84" style="enable-background:new 0 0 512 159.84;" xml:space="preserve">
<style type="text/css">
	.st0{fill:#E99713;}
	.st1{fill:#5FCED9;}
	.st2{clip-path:url(#SVGID_2_);}
	.st3{opacity:0.27;fill:#A6EEF5;}
	.st4{fill:#76A74F;}
	.st5{fill:#4C6100;}
	.st6{fill:#567D2E;}
	.st7{fill:#F4CDB0;}
	.st8{opacity:0.27;}
	.st9{opacity:0.27;fill:#F4CDB0;}
	.st10{fill:#9D625F;}
	.st11{opacity:0.27;fill:#9D625F;}
	.st12{fill:#91674C;}
	.st13{fill:#70503B;}
	.st14{fill:#AD7B5A;}
	.st15{opacity:0.2;fill:#91674C;}
	.st16{fill:#B89B39;}
	.st17{fill:#D8B643;}
	.st18{fill:#CC916A;}
	.st19{fill:#704949;}
	.st20{fill:#B5A059;}
	.st21{fill:#D8BF6A;}
	.st22{fill:#F2E2AA;}
	.st23{fill:none;}
	.st24{opacity:0.27;fill:#D8BF6A;}
	.st25{fill:#E87872;}
	.st26{fill:#FF8A87;}
	.st27{fill:#FFEBA1;}
	.st28{fill:#FFABA1;}
	.st29{fill:#FF7B73;}
	.st30{fill:#76B6DE;}
	.st31{fill:#8DCBF2;}
	.st32{fill:#D9E8F9;}
	.st33{fill:#F2D677;}
	.st34{fill:#FFFFFF;}
	.st35{fill:none;stroke:#FFFFFF;stroke-width:14;stroke-miterlimit:10;}
	.st36{clip-path:url(#SVGID_4_);}
	.st37{fill:none;stroke:#1A1A1A;stroke-width:0.5;stroke-miterlimit:10;}
	.st38{fill:none;stroke:#5E9BC9;stroke-miterlimit:10;}
	.st39{fill:none;stroke:#FA451E;stroke-miterlimit:10;}
	.st40{display:none;}
	.st41{display:inline;fill:none;stroke:#1A1A1A;stroke-width:0.5;stroke-miterlimit:10;}
	.st42{fill:#F8AA68;stroke:#FFFFFF;stroke-miterlimit:10;}
	.st43{fill:#2AC8D8;stroke:#FFFFFF;stroke-miterlimit:10;}
	.st44{fill:url(#SVGID_5_);stroke:#FFFFFF;stroke-miterlimit:10;}
	.st45{fill:url(#SVGID_6_);stroke:#FFFFFF;stroke-miterlimit:10;}
	.st46{fill:none;stroke:#FFFFFF;stroke-miterlimit:10;}
	.st47{fill:#FFFFFF;stroke:#FFFFFF;stroke-width:3.4615;stroke-miterlimit:10;}
	.st48{fill:#F8AA68;stroke:#FFFFFF;stroke-width:3.4615;stroke-miterlimit:10;}
	.st49{fill:url(#SVGID_7_);stroke:#FFFFFF;stroke-width:3.4615;stroke-miterlimit:10;}
	.st50{fill:url(#SVGID_8_);stroke:#FFFFFF;stroke-width:3.4615;stroke-miterlimit:10;}
	.st51{fill:url(#SVGID_9_);stroke:#FFFFFF;stroke-width:3.4615;stroke-miterlimit:10;}
	.st52{fill:#FFB735;stroke:#FFFFFF;stroke-width:3.4615;stroke-linejoin:round;stroke-miterlimit:10;}
	.st53{fill:#FFB735;stroke:#FFFFFF;stroke-width:3.4615;stroke-linejoin:bevel;stroke-miterlimit:10;}
	.st54{fill:#FFB735;}
	.st55{fill:none;stroke:#FFFFFF;stroke-width:3.4615;stroke-miterlimit:10;}
	.st56{fill:#FFFFFF;stroke:#FFFFFF;stroke-width:1.0564;stroke-miterlimit:10;}
	.st57{fill:#F8AA68;stroke:#FFFFFF;stroke-width:1.0564;stroke-miterlimit:10;}
	.st58{fill:url(#SVGID_10_);stroke:#FFFFFF;stroke-width:1.0564;stroke-miterlimit:10;}
	.st59{fill:url(#SVGID_11_);stroke:#FFFFFF;stroke-width:1.0564;stroke-miterlimit:10;}
	.st60{fill:url(#SVGID_12_);stroke:#FFFFFF;stroke-width:1.0564;stroke-miterlimit:10;}
	.st61{fill:#FFB735;stroke:#FFFFFF;stroke-width:1.0564;stroke-linejoin:round;stroke-miterlimit:10;}
	.st62{fill:#FFB735;stroke:#FFFFFF;stroke-width:1.0564;stroke-linejoin:bevel;stroke-miterlimit:10;}
	.st63{fill:none;stroke:#FFFFFF;stroke-width:1.0564;stroke-miterlimit:10;}
	.st64{fill:#11BED8;}
	.st65{fill:none;stroke:#218597;stroke-width:1.0564;stroke-miterlimit:10;}
	.st66{fill:#FFB735;stroke:#FFFFFF;stroke-width:0.747;stroke-linejoin:round;stroke-miterlimit:10;}
	.st67{fill:#FFFFFF;stroke:#FFFFFF;stroke-width:0.662;stroke-miterlimit:10;}
	.st68{fill:none;stroke:#218597;stroke-miterlimit:10;}
	.st69{fill:#F8AA68;stroke:#FFFFFF;stroke-width:0.662;stroke-miterlimit:10;}
	.st70{fill:url(#SVGID_13_);stroke:#FFFFFF;stroke-width:0.662;stroke-miterlimit:10;}
	.st71{fill:url(#SVGID_14_);stroke:#FFFFFF;stroke-width:0.662;stroke-miterlimit:10;}
	.st72{fill:url(#SVGID_15_);stroke:#FFFFFF;stroke-width:0.662;stroke-miterlimit:10;}
	.st73{fill:none;stroke:#5E9BC9;stroke-width:0.662;stroke-miterlimit:10;}
	.st74{fill:#11BED8;stroke:#FFFFFF;stroke-width:0.9444;stroke-miterlimit:10;}
	.st75{fill:#FFB735;stroke:#FFFFFF;stroke-width:0.662;stroke-linejoin:round;stroke-miterlimit:10;}
	.st76{fill:#FFB735;stroke:#FFFFFF;stroke-width:0.662;stroke-linejoin:bevel;stroke-miterlimit:10;}
	.st77{fill:none;stroke:#FFFFFF;stroke-width:0.662;stroke-miterlimit:10;}
	.st78{fill:#FFFFFF;stroke:#FFFFFF;stroke-miterlimit:10;}
	.st79{fill:url(#SVGID_16_);stroke:#FFFFFF;stroke-miterlimit:10;}
	.st80{fill:url(#SVGID_17_);stroke:#FFFFFF;stroke-miterlimit:10;}
	.st81{fill:url(#SVGID_18_);stroke:#FFFFFF;stroke-miterlimit:10;}
	.st82{fill:#FFB735;stroke:#FFFFFF;stroke-linejoin:round;stroke-miterlimit:10;}
	.st83{fill:#FFB735;stroke:#FFFFFF;stroke-linejoin:bevel;stroke-miterlimit:10;}
	.st84{fill:#FFB735;stroke:#FFFFFF;stroke-width:0.7071;stroke-linejoin:round;stroke-miterlimit:10;}
</style>
<g>
	<g>
		<polygon class="st56" points="70.93,78.32 102.03,62.19 102.24,98.76 70.93,116.47 		"/>
		<polygon class="st57" points="52.05,83.77 45.76,80.36 45.37,72.87 51.85,76.61 		"/>
		<polygon class="st57" points="64.45,61.97 58.13,65.71 52.05,62.06 58.18,58.46 		"/>
		<polygon class="st57" points="64.63,98.3 64.27,105.59 58.13,102.05 58.18,94.79 		"/>
		<polygon class="st34" points="76.84,61.97 70.56,65.71 64.45,61.97 70.76,58.43 		"/>
		<polygon class="st57" points="83.52,102.15 77.21,105.79 77.21,98.52 83.32,94.78 		"/>
		<polygon class="st57" points="83.52,80.13 83.52,87.4 77.23,91.26 77.04,83.77 		"/>
		<polygon class="st57" points="89.8,62.06 83.51,66.05 76.84,61.97 83.51,58.43 		"/>
		<polygon class="st57" points="95.92,87.51 95.75,94.67 89.43,98.3 89.66,91.17 		"/>
		<polygon class="st57" points="96.13,80.36 89.8,83.77 89.8,76.5 95.74,72.87 		"/>
		<linearGradient id="SVGID_2_" gradientUnits="userSpaceOnUse" x1="8.0077" y1="65.724" x2="133.1162" y2="65.724">
			<stop  offset="0" style="stop-color:#2AC8D8"/>
			<stop  offset="1" style="stop-color:#218597"/>
		</linearGradient>
		<path style="fill:url(#SVGID_2_);stroke:#FFFFFF;stroke-width:1.0564;stroke-miterlimit:10;" d="M133.12,44.24L70.78,7.55
			L8.01,43.77l25.48,14.73L33,102.02l37.64,21.88l38.03-21.94l-0.19-43.49L133.12,44.24z M70.93,116.47L39.26,98.4l0.21-36.46
			l31.05-17.71l31.51,17.95l0.21,36.57L70.93,116.47z"/>
		<linearGradient id="SVGID_4_" gradientUnits="userSpaceOnUse" x1="8.0053" y1="98.307" x2="70.8528" y2="98.307">
			<stop  offset="0" style="stop-color:#2AC8D8"/>
			<stop  offset="1" style="stop-color:#218597"/>
		</linearGradient>
		<polygon style="fill:url(#SVGID_4_);stroke:#FFFFFF;stroke-width:1.0564;stroke-miterlimit:10;" points="33.01,102.01 
			70.65,123.89 70.85,152.85 8.01,116.71 8.01,43.77 33.49,58.5 		"/>
		<linearGradient id="SVGID_5_" gradientUnits="userSpaceOnUse" x1="70.6451" y1="98.5461" x2="133.927" y2="98.5461">
			<stop  offset="0" style="stop-color:#2AC8D8"/>
			<stop  offset="1" style="stop-color:#218597"/>
		</linearGradient>
		<polygon style="fill:url(#SVGID_5_);stroke:#FFFFFF;stroke-width:1.0564;stroke-miterlimit:10;" points="133.93,116.45 
			70.85,152.85 70.65,123.89 108.67,101.95 108.48,58.46 133.12,44.25 		"/>
		<polygon class="st57" points="64.45,61.97 58.13,65.71 52.05,62.06 58.18,58.46 		"/>
		<polygon class="st57" points="89.8,62.06 83.51,66.05 76.84,61.97 83.51,58.43 		"/>
		<polygon class="st57" points="52.05,83.77 45.76,80.36 45.37,72.87 51.85,76.61 		"/>
		<polygon class="st57" points="64.45,61.97 58.13,65.71 52.05,62.06 58.18,58.46 		"/>
		<polygon class="st57" points="64.63,98.3 64.27,105.59 58.13,102.05 58.18,94.79 		"/>
		<polygon class="st57" points="83.52,102.15 77.21,105.79 77.21,98.52 83.32,94.78 		"/>
		<polygon class="st57" points="83.52,80.13 83.52,87.4 77.23,91.26 77.04,83.77 		"/>
		<polygon class="st57" points="89.8,62.06 83.51,66.05 76.84,61.97 83.51,58.43 		"/>
		<polygon class="st57" points="95.92,87.51 95.75,94.67 89.43,98.3 89.66,91.17 		"/>
		<polygon class="st57" points="96.13,80.36 89.8,83.77 89.8,76.5 95.74,72.87 		"/>
		<polygon class="st34" points="64.45,61.97 58.13,65.71 52.05,62.06 58.18,58.46 		"/>
		<polygon class="st34" points="89.8,62.06 83.51,66.05 76.84,61.97 83.51,58.43 		"/>
		<polygon class="st57" points="83.52,80.13 83.52,87.4 77.23,91.26 77.04,83.77 		"/>
		<polygon class="st57" points="96.13,80.36 89.8,83.77 89.8,76.5 95.74,72.87 		"/>
		<polygon class="st57" points="83.52,102.15 77.21,105.79 77.21,98.52 83.32,94.78 		"/>
		<polygon class="st57" points="95.92,87.51 95.75,94.67 89.43,98.3 89.66,91.17 		"/>
		<polygon class="st57" points="52.05,83.77 45.76,80.36 45.37,72.87 51.85,76.61 		"/>
		<polygon class="st57" points="64.63,98.3 64.27,105.59 58.13,102.05 58.18,94.79 		"/>
		<polygon class="st34" points="52.05,83.77 45.76,80.36 45.37,72.87 51.85,76.61 		"/>
		<polygon class="st34" points="64.63,98.3 64.27,105.59 58.13,102.05 58.18,94.79 		"/>
		<polygon class="st34" points="83.52,102.15 77.21,105.79 77.21,98.52 83.32,94.78 		"/>
		<polygon class="st34" points="83.52,80.13 83.52,87.4 77.23,91.26 77.04,83.77 		"/>
		<polygon class="st34" points="95.92,87.51 95.75,94.67 89.43,98.3 89.66,91.17 		"/>
		<polygon class="st34" points="96.13,80.36 89.8,83.77 89.8,76.5 95.74,72.87 		"/>
		<path class="st61" d="M70.51,44.24L39.47,61.95l31.46,16.37l31.1-16.13L70.51,44.24z M76.84,61.97l-6.29,3.74l-6.11-3.74
			l-6.32,3.74l-6.08-3.64l6.13-3.6l6.28,3.51l6.31-3.54L76.84,61.97l6.67-3.54l6.3,3.63l-6.3,3.98L76.84,61.97z"/>
		<path class="st62" d="M39.47,61.95L39.26,98.4l31.67,18.06V78.32L39.47,61.95z M45.76,80.36l-0.39-7.49l6.48,3.74l0.2,7.16
			L45.76,80.36z M64.27,105.59l-6.14-3.54l0.04-7.26l6.45,3.51L64.27,105.59z"/>
		<path class="st54" d="M77.21,105.79v-7.27l6.11-3.74l0.2,7.37L77.21,105.79z M83.52,87.4l-6.29,3.87l-0.19-7.49l6.48-3.64V87.4z
			 M95.75,94.67l-6.32,3.62l0.22-7.13l6.26-3.66L95.75,94.67z M89.8,83.77V76.5l5.94-3.63l0.39,7.49L89.8,83.77z"/>
		<polyline class="st63" points="133.12,44.24 108.48,58.46 70.64,36.46 33.49,58.49 		"/>
	</g>
	<g>
		<path class="st64" d="M168.65,86.99h-9.38v16.59h-11.56V46.62h20.94c13.51,0,20.27,6.59,20.27,19.77c0,6.65-1.72,11.74-5.15,15.29
			C180.34,85.22,175.3,86.99,168.65,86.99z M159.27,77.11h9.3c5.75,0,8.63-3.57,8.63-10.72c0-3.52-0.7-6.04-2.09-7.58
			c-1.4-1.54-3.57-2.3-6.53-2.3h-9.3V77.11z"/>
		<path class="st64" d="M230.57,103.58h-32.42V46.62h11.56v46.74h20.86V103.58z"/>
		<path class="st64" d="M240.35,103.58l12.82-56.96h21.95l12.82,56.96h-11.56l-2.26-10.3h-19.94l-2.26,10.3H240.35z M262.13,56.17
			l-5.78,27.06h15.58l-5.78-27.06H262.13z"/>
		<path class="st64" d="M346.32,46.62h22.36c5.92,0,10.36,1.19,13.32,3.56c2.96,2.37,4.44,6.21,4.44,11.52
			c0,3.18-0.48,5.71-1.42,7.58c-0.95,1.87-2.57,3.53-4.86,4.98c2.51,1.06,4.37,2.6,5.57,4.61c1.2,2.01,1.8,4.8,1.8,8.38
			c0,5.53-1.62,9.63-4.86,12.31c-3.24,2.68-7.79,4.02-13.65,4.02h-22.7V46.62z M368.1,56.5h-10.22v13.57h10.3
			c4.36,0,6.53-2.26,6.53-6.79C374.71,58.77,372.51,56.5,368.1,56.5z M368.43,79.79h-10.55V93.7h10.55c2.51,0,4.37-0.5,5.57-1.51
			c1.2-1,1.8-2.85,1.8-5.53C375.8,82.08,373.34,79.79,368.43,79.79z"/>
		<path class="st64" d="M437.84,97.51c-3.55,4.72-9.65,7.08-18.3,7.08c-8.66,0-14.76-2.36-18.3-7.08
			c-3.55-4.72-5.32-12.1-5.32-22.16c0-10.05,1.77-17.52,5.32-22.41c3.55-4.89,9.65-7.33,18.3-7.33c8.66,0,14.76,2.44,18.3,7.33
			c3.54,4.89,5.32,12.35,5.32,22.41C443.16,85.4,441.39,92.79,437.84,97.51z M410.28,90.14c1.65,2.93,4.73,4.4,9.26,4.4
			c4.52,0,7.61-1.47,9.26-4.4c1.65-2.93,2.47-7.85,2.47-14.74c0-6.9-0.84-11.91-2.51-15.04c-1.68-3.13-4.75-4.69-9.21-4.69
			c-4.47,0-7.54,1.56-9.21,4.69c-1.67,3.13-2.51,8.14-2.51,15.04C407.81,82.29,408.64,87.2,410.28,90.14z"/>
		<path class="st64" d="M463.27,46.62l10.55,20.94l10.81-20.94h11.98l-16.42,29.07l16.42,27.89h-12.82L473.23,83.9l-10.81,19.68
			h-11.98l16.42-27.31l-16.42-29.65H463.27z"/>
		<path class="st65" d="M143.49,107.81V42.39h25.17c15.8,0,24.5,8.52,24.5,23.99c0,7.75-2.13,13.88-6.34,18.23
			c-4.24,4.38-10.35,6.6-18.15,6.6h-5.16v16.59H143.49z M168.57,72.88c1.86,0,4.4,0,4.4-6.5c0-3.38-0.76-4.48-1-4.74
			c-0.69-0.76-2.23-0.92-3.41-0.92h-5.07v12.15H168.57z"/>
		<path class="st65" d="M168.65,86.99h-9.38v16.59h-11.56V46.62h20.94c13.51,0,20.27,6.59,20.27,19.77c0,6.65-1.72,11.74-5.15,15.29
			C180.34,85.22,175.3,86.99,168.65,86.99z M159.27,77.11h9.3c5.75,0,8.63-3.57,8.63-10.72c0-3.52-0.7-6.04-2.09-7.58
			c-1.4-1.54-3.57-2.3-6.53-2.3h-9.3V77.11z"/>
		<polygon class="st65" points="193.93,107.81 193.93,42.39 213.94,42.39 213.94,89.13 234.8,89.13 234.8,107.81 		"/>
		<path class="st65" d="M230.57,103.58h-32.42V46.62h11.56v46.74h20.86V103.58z"/>
		<path class="st65" d="M272.98,107.81l-2.26-10.3h-13.14l-2.26,10.3h-20.24l14.72-65.41h28.71l14.72,65.41H272.98z M266.71,79
			l-2.57-12.01L261.58,79H266.71z"/>
		<path class="st65" d="M240.35,103.58l12.82-56.96h21.95l12.82,56.96h-11.56l-2.26-10.3h-19.94l-2.26,10.3H240.35z M262.13,56.17
			l-5.78,27.06h15.58l-5.78-27.06H262.13z"/>
		<g>
			<path class="st64" d="M316.23,103.58h-11.56V80.54l-17.59-33.93h12.82l10.47,22.7l10.47-22.7h12.82l-17.42,33.93V103.58z"/>
			<polygon class="st65" points="300.44,107.81 300.44,81.58 280.13,42.39 302.6,42.39 310.36,59.23 318.13,42.39 340.57,42.39 
				320.45,81.57 320.45,107.81 			"/>
			<path class="st65" d="M316.23,103.58h-11.56V80.54l-17.59-33.93h12.82l10.47,22.7l10.47-22.7h12.82l-17.42,33.93V103.58z"/>
		</g>
		<path class="st65" d="M342.09,107.81V42.39h26.59c6.87,0,12.24,1.51,15.96,4.49c4,3.21,6.02,8.19,6.02,14.82
			c0,3.89-0.62,7-1.88,9.49c-0.46,0.91-1.03,1.78-1.71,2.61c0.89,0.87,1.65,1.84,2.28,2.9c1.61,2.71,2.4,6.15,2.4,10.55
			c0,6.82-2.15,12.06-6.39,15.57c-4,3.31-9.5,4.99-16.35,4.99H342.09z M368.43,89.47c1.65,0,2.51-0.29,2.81-0.48
			c0.08-0.15,0.34-0.76,0.34-2.33c0-1.83-0.13-2.64-3.15-2.64h-6.33v5.45H368.43z M368.18,65.85c1.75,0,2.31-0.12,2.31-2.56
			c0-2.32-0.45-2.56-2.39-2.56h-5.99v5.12H368.18z"/>
		<path class="st65" d="M346.32,46.62h22.36c5.92,0,10.36,1.19,13.32,3.56c2.96,2.37,4.44,6.21,4.44,11.52
			c0,3.18-0.48,5.71-1.42,7.58c-0.95,1.87-2.57,3.53-4.86,4.98c2.51,1.06,4.37,2.6,5.57,4.61c1.2,2.01,1.8,4.8,1.8,8.38
			c0,5.53-1.62,9.63-4.86,12.31c-3.24,2.68-7.79,4.02-13.65,4.02h-22.7V46.62z M368.1,56.5h-10.22v13.57h10.3
			c4.36,0,6.53-2.26,6.53-6.79C374.71,58.77,372.51,56.5,368.1,56.5z M368.43,79.79h-10.55V93.7h10.55c2.51,0,4.37-0.5,5.57-1.51
			c1.2-1,1.8-2.85,1.8-5.53C375.8,82.08,373.34,79.79,368.43,79.79z"/>
		<path class="st65" d="M419.54,108.81c-10.02,0-17.31-2.95-21.68-8.77c-4.15-5.52-6.17-13.59-6.17-24.69
			c0-11.07,2-19.21,6.12-24.89c4.37-6.02,11.68-9.07,21.72-9.07c10.04,0,17.35,3.05,21.72,9.07c4.12,5.68,6.13,13.82,6.13,24.89
			c0,11.09-2.02,19.17-6.17,24.69C436.85,105.86,429.56,108.81,419.54,108.81z M419.54,59.89c-3.7,0-4.88,1.32-5.49,2.46
			c-0.92,1.71-2.01,5.37-2.01,13.04c0,7.64,1.05,11.11,1.93,12.67c0.34,0.61,1.26,2.24,5.57,2.24c4.31,0,5.23-1.63,5.57-2.24
			c0.88-1.57,1.93-5.04,1.93-12.67c0-7.67-1.09-11.33-2.01-13.04C424.42,61.21,423.24,59.89,419.54,59.89z"/>
		<path class="st65" d="M437.84,97.51c-3.55,4.72-9.65,7.08-18.3,7.08c-8.66,0-14.76-2.36-18.3-7.08
			c-3.55-4.72-5.32-12.1-5.32-22.16c0-10.05,1.77-17.52,5.32-22.41c3.55-4.89,9.65-7.33,18.3-7.33c8.66,0,14.76,2.44,18.3,7.33
			c3.54,4.89,5.32,12.35,5.32,22.41C443.16,85.4,441.39,92.79,437.84,97.51z M410.28,90.14c1.65,2.93,4.73,4.4,9.26,4.4
			c4.52,0,7.61-1.47,9.26-4.4c1.65-2.93,2.47-7.85,2.47-14.74c0-6.9-0.84-11.91-2.51-15.04c-1.68-3.13-4.75-4.69-9.21-4.69
			c-4.47,0-7.54,1.56-9.21,4.69c-1.67,3.13-2.51,8.14-2.51,15.04C407.81,82.29,408.64,87.2,410.28,90.14z"/>
		<polygon class="st65" points="481.26,107.81 473.19,92.76 464.93,107.81 442.98,107.81 461.99,76.19 443.28,42.39 465.87,42.39 
			473.86,58.26 482.05,42.39 503.84,42.39 485.06,75.64 503.99,107.81 		"/>
		<path class="st65" d="M463.27,46.62l10.55,20.94l10.81-20.94h11.98l-16.42,29.07l16.42,27.89h-12.82L473.23,83.9l-10.81,19.68
			h-11.98l16.42-27.31l-16.42-29.65H463.27z"/>
		<rect x="143.49" y="113.2" class="st66" width="360.51" height="5.81"/>
	</g>
</g>
</svg>
