<?xml version="1.0" encoding="utf-8"?>
<!-- Generator: Adobe Illustrator 23.0.2, SVG Export Plug-In . SVG Version: 6.00 Build 0)  -->
<svg version="1.1" id="OBJECTS" xmlns="http://www.w3.org/2000/svg" xmlns:xlink="http://www.w3.org/1999/xlink" x="0px" y="0px"
	 viewBox="0 0 512 512" style="enable-background:new 0 0 512 512;" xml:space="preserve">
<style type="text/css">
	.st0{fill:#E99713;}
	.st1{fill:#5FCED9;}
	.st2{clip-path:url(#SVGID_2_);}
	.st3{opacity:0.27;fill:#A6EEF5;}
	.st4{fill:#76A74F;}
	.st5{fill:#4C6100;}
	.st6{fill:#567D2E;}
	.st7{fill:#F4CDB0;}
	.st8{opacity:0.27;}
	.st9{opacity:0.27;fill:#F4CDB0;}
	.st10{fill:#9D625F;}
	.st11{opacity:0.27;fill:#9D625F;}
	.st12{fill:#91674C;}
	.st13{fill:#70503B;}
	.st14{fill:#AD7B5A;}
	.st15{opacity:0.2;fill:#91674C;}
	.st16{fill:#B89B39;}
	.st17{fill:#D8B643;}
	.st18{fill:#CC916A;}
	.st19{fill:#704949;}
	.st20{fill:#B5A059;}
	.st21{fill:#D8BF6A;}
	.st22{fill:#F2E2AA;}
	.st23{fill:none;}
	.st24{opacity:0.27;fill:#D8BF6A;}
	.st25{fill:#E87872;}
	.st26{fill:#FF8A87;}
	.st27{fill:#FFEBA1;}
	.st28{fill:#FFABA1;}
	.st29{fill:#FF7B73;}
	.st30{fill:#76B6DE;}
	.st31{fill:#8DCBF2;}
	.st32{fill:#D9E8F9;}
	.st33{fill:#F2D677;}
	.st34{fill:#FFFFFF;}
	.st35{fill:none;stroke:#FFFFFF;stroke-width:14;stroke-miterlimit:10;}
	.st36{clip-path:url(#SVGID_4_);}
	.st37{fill:none;stroke:#1A1A1A;stroke-width:0.5;stroke-miterlimit:10;}
	.st38{fill:none;stroke:#5E9BC9;stroke-miterlimit:10;}
	.st39{fill:none;stroke:#FA451E;stroke-miterlimit:10;}
	.st40{display:none;}
	.st41{display:inline;fill:none;stroke:#1A1A1A;stroke-width:0.5;stroke-miterlimit:10;}
	.st42{fill:#F8AA68;stroke:#FFFFFF;stroke-miterlimit:10;}
	.st43{fill:#2AC8D8;stroke:#FFFFFF;stroke-miterlimit:10;}
	.st44{fill:url(#SVGID_5_);stroke:#FFFFFF;stroke-miterlimit:10;}
	.st45{fill:url(#SVGID_6_);stroke:#FFFFFF;stroke-miterlimit:10;}
	.st46{fill:none;stroke:#FFFFFF;stroke-miterlimit:10;}
	.st47{fill:#FFFFFF;stroke:#FFFFFF;stroke-width:3.4615;stroke-miterlimit:10;}
	.st48{fill:#F8AA68;stroke:#FFFFFF;stroke-width:3.4615;stroke-miterlimit:10;}
	.st49{fill:url(#SVGID_7_);stroke:#FFFFFF;stroke-width:3.4615;stroke-miterlimit:10;}
	.st50{fill:url(#SVGID_8_);stroke:#FFFFFF;stroke-width:3.4615;stroke-miterlimit:10;}
	.st51{fill:url(#SVGID_9_);stroke:#FFFFFF;stroke-width:3.4615;stroke-miterlimit:10;}
	.st52{fill:#FFB735;stroke:#FFFFFF;stroke-width:3.4615;stroke-linejoin:round;stroke-miterlimit:10;}
	.st53{fill:#FFB735;stroke:#FFFFFF;stroke-width:3.4615;stroke-linejoin:bevel;stroke-miterlimit:10;}
	.st54{fill:#FFB735;}
	.st55{fill:none;stroke:#FFFFFF;stroke-width:3.4615;stroke-miterlimit:10;}
	.st56{fill:#FFFFFF;stroke:#FFFFFF;stroke-width:1.0564;stroke-miterlimit:10;}
	.st57{fill:#F8AA68;stroke:#FFFFFF;stroke-width:1.0564;stroke-miterlimit:10;}
	.st58{fill:url(#SVGID_10_);stroke:#FFFFFF;stroke-width:1.0564;stroke-miterlimit:10;}
	.st59{fill:url(#SVGID_11_);stroke:#FFFFFF;stroke-width:1.0564;stroke-miterlimit:10;}
	.st60{fill:url(#SVGID_12_);stroke:#FFFFFF;stroke-width:1.0564;stroke-miterlimit:10;}
	.st61{fill:#FFB735;stroke:#FFFFFF;stroke-width:1.0564;stroke-linejoin:round;stroke-miterlimit:10;}
	.st62{fill:#FFB735;stroke:#FFFFFF;stroke-width:1.0564;stroke-linejoin:bevel;stroke-miterlimit:10;}
	.st63{fill:none;stroke:#FFFFFF;stroke-width:1.0564;stroke-miterlimit:10;}
	.st64{fill:#11BED8;}
	.st65{fill:none;stroke:#218597;stroke-width:1.0564;stroke-miterlimit:10;}
	.st66{fill:#FFB735;stroke:#FFFFFF;stroke-width:0.747;stroke-linejoin:round;stroke-miterlimit:10;}
	.st67{fill:#FFFFFF;stroke:#FFFFFF;stroke-width:0.662;stroke-miterlimit:10;}
	.st68{fill:none;stroke:#218597;stroke-miterlimit:10;}
	.st69{fill:#F8AA68;stroke:#FFFFFF;stroke-width:0.662;stroke-miterlimit:10;}
	.st70{fill:url(#SVGID_13_);stroke:#FFFFFF;stroke-width:0.662;stroke-miterlimit:10;}
	.st71{fill:url(#SVGID_14_);stroke:#FFFFFF;stroke-width:0.662;stroke-miterlimit:10;}
	.st72{fill:url(#SVGID_15_);stroke:#FFFFFF;stroke-width:0.662;stroke-miterlimit:10;}
	.st73{fill:none;stroke:#5E9BC9;stroke-width:0.662;stroke-miterlimit:10;}
	.st74{fill:#11BED8;stroke:#FFFFFF;stroke-width:0.9444;stroke-miterlimit:10;}
	.st75{fill:#FFB735;stroke:#FFFFFF;stroke-width:0.662;stroke-linejoin:round;stroke-miterlimit:10;}
	.st76{fill:#FFB735;stroke:#FFFFFF;stroke-width:0.662;stroke-linejoin:bevel;stroke-miterlimit:10;}
	.st77{fill:none;stroke:#FFFFFF;stroke-width:0.662;stroke-miterlimit:10;}
	.st78{fill:#FFFFFF;stroke:#FFFFFF;stroke-miterlimit:10;}
	.st79{fill:url(#SVGID_16_);stroke:#FFFFFF;stroke-miterlimit:10;}
	.st80{fill:url(#SVGID_17_);stroke:#FFFFFF;stroke-miterlimit:10;}
	.st81{fill:url(#SVGID_18_);stroke:#FFFFFF;stroke-miterlimit:10;}
	.st82{fill:#FFB735;stroke:#FFFFFF;stroke-linejoin:round;stroke-miterlimit:10;}
	.st83{fill:#FFB735;stroke:#FFFFFF;stroke-linejoin:bevel;stroke-miterlimit:10;}
	.st84{fill:#FFB735;stroke:#FFFFFF;stroke-width:0.7071;stroke-linejoin:round;stroke-miterlimit:10;}
</style>
<g>
	<polygon class="st47" points="255.87,249.84 357.78,196.99 358.47,316.82 255.87,374.84 	"/>
	<polygon class="st48" points="194.01,267.71 173.42,256.53 172.14,231.98 193.36,244.24 	"/>
	<polygon class="st48" points="234.65,196.26 213.95,208.51 194.01,196.57 214.09,184.77 	"/>
	<polygon class="st48" points="235.24,315.3 234.06,339.19 213.95,327.59 214.09,303.81 	"/>
	<polygon class="st34" points="275.25,196.26 254.66,208.51 234.65,196.26 255.32,184.67 	"/>
	<polygon class="st48" points="297.13,327.94 276.47,339.84 276.47,316.03 296.47,303.77 	"/>
	<polygon class="st48" points="297.13,255.76 297.13,279.58 276.53,292.25 275.91,267.71 	"/>
	<polygon class="st48" points="317.73,196.57 297.1,209.62 275.25,196.26 297.1,184.67 	"/>
	<polygon class="st48" points="337.77,279.96 337.21,303.43 316.51,315.3 317.24,291.94 	"/>
	<polygon class="st48" points="338.46,256.53 317.73,267.71 317.73,243.89 337.18,231.98 	"/>
	<linearGradient id="SVGID_2_" gradientUnits="userSpaceOnUse" x1="49.7037" y1="208.5664" x2="459.647" y2="208.5664">
		<stop  offset="0" style="stop-color:#2AC8D8"/>
		<stop  offset="1" style="stop-color:#218597"/>
	</linearGradient>
	<path style="fill:url(#SVGID_2_);stroke:#FFFFFF;stroke-width:3.4615;stroke-miterlimit:10;" d="M459.65,138.18L255.39,17.96
		L49.7,136.62l83.49,48.25l-1.59,142.61l123.33,71.69l124.61-71.9l-0.62-142.51L459.65,138.18z M255.87,374.84l-103.78-59.19
		l0.69-119.46l101.73-58.01l103.26,58.81l0.69,119.84L255.87,374.84z"/>
	<linearGradient id="SVGID_4_" gradientUnits="userSpaceOnUse" x1="49.6961" y1="315.3313" x2="255.6285" y2="315.3313">
		<stop  offset="0" style="stop-color:#2AC8D8"/>
		<stop  offset="1" style="stop-color:#218597"/>
	</linearGradient>
	<polygon style="fill:url(#SVGID_4_);stroke:#FFFFFF;stroke-width:3.4615;stroke-miterlimit:10;" points="131.62,327.48 
		254.95,399.17 255.63,494.04 49.7,375.64 49.7,136.62 133.2,184.88 	"/>
	<linearGradient id="SVGID_5_" gradientUnits="userSpaceOnUse" x1="254.948" y1="316.1149" x2="462.304" y2="316.1149">
		<stop  offset="0" style="stop-color:#2AC8D8"/>
		<stop  offset="1" style="stop-color:#218597"/>
	</linearGradient>
	<polygon style="fill:url(#SVGID_5_);stroke:#FFFFFF;stroke-width:3.4615;stroke-miterlimit:10;" points="462.3,374.77 
		255.63,494.04 254.95,399.17 379.56,327.27 378.92,184.76 459.64,138.19 	"/>
	<polygon class="st48" points="234.65,196.26 213.95,208.51 194.01,196.57 214.09,184.77 	"/>
	<polygon class="st48" points="317.73,196.57 297.1,209.62 275.25,196.26 297.1,184.67 	"/>
	<polygon class="st48" points="194.01,267.71 173.42,256.53 172.14,231.98 193.36,244.24 	"/>
	<polygon class="st48" points="234.65,196.26 213.95,208.51 194.01,196.57 214.09,184.77 	"/>
	<polygon class="st48" points="235.24,315.3 234.06,339.19 213.95,327.59 214.09,303.81 	"/>
	<polygon class="st48" points="297.13,327.94 276.47,339.84 276.47,316.03 296.47,303.77 	"/>
	<polygon class="st48" points="297.13,255.76 297.13,279.58 276.53,292.25 275.91,267.71 	"/>
	<polygon class="st48" points="317.73,196.57 297.1,209.62 275.25,196.26 297.1,184.67 	"/>
	<polygon class="st48" points="337.77,279.96 337.21,303.43 316.51,315.3 317.24,291.94 	"/>
	<polygon class="st48" points="338.46,256.53 317.73,267.71 317.73,243.89 337.18,231.98 	"/>
	<polygon class="st34" points="234.65,196.26 213.95,208.51 194.01,196.57 214.09,184.77 	"/>
	<polygon class="st34" points="317.73,196.57 297.1,209.62 275.25,196.26 297.1,184.67 	"/>
	<polygon class="st48" points="297.13,255.76 297.13,279.58 276.53,292.25 275.91,267.71 	"/>
	<polygon class="st48" points="338.46,256.53 317.73,267.71 317.73,243.89 337.18,231.98 	"/>
	<polygon class="st48" points="297.13,327.94 276.47,339.84 276.47,316.03 296.47,303.77 	"/>
	<polygon class="st48" points="337.77,279.96 337.21,303.43 316.51,315.3 317.24,291.94 	"/>
	<polygon class="st48" points="194.01,267.71 173.42,256.53 172.14,231.98 193.36,244.24 	"/>
	<polygon class="st48" points="235.24,315.3 234.06,339.19 213.95,327.59 214.09,303.81 	"/>
	<polygon class="st34" points="194.01,267.71 173.42,256.53 172.14,231.98 193.36,244.24 	"/>
	<polygon class="st34" points="235.24,315.3 234.06,339.19 213.95,327.59 214.09,303.81 	"/>
	<polygon class="st34" points="297.13,327.94 276.47,339.84 276.47,316.03 296.47,303.77 	"/>
	<polygon class="st34" points="297.13,255.76 297.13,279.58 276.53,292.25 275.91,267.71 	"/>
	<polygon class="st34" points="337.77,279.96 337.21,303.43 316.51,315.3 317.24,291.94 	"/>
	<polygon class="st34" points="338.46,256.53 317.73,267.71 317.73,243.89 337.18,231.98 	"/>
	<path class="st52" d="M254.52,138.18l-101.73,58.01l103.08,53.65l101.91-52.86L254.52,138.18z M275.25,196.26l-20.6,12.25
		l-20.01-12.25l-20.7,12.25l-19.94-11.94l20.08-11.8l20.56,11.49l20.66-11.6L275.25,196.26l21.84-11.6l20.63,11.91l-20.63,13.05
		L275.25,196.26z"/>
	<path class="st53" d="M152.79,196.19l-0.69,119.46l103.78,59.19V249.84L152.79,196.19z M173.42,256.53l-1.28-24.54l21.22,12.25
		l0.66,23.47L173.42,256.53z M234.06,339.19l-20.11-11.6l0.14-23.78l21.15,11.49L234.06,339.19z"/>
	<path class="st54" d="M276.47,339.84v-23.82l20.01-12.25l0.66,24.16L276.47,339.84z M297.13,279.58l-20.6,12.67l-0.62-24.54
		l21.22-11.94V279.58z M337.21,303.43l-20.7,11.87l0.73-23.36l20.53-11.98L337.21,303.43z M317.73,267.71v-23.82l19.45-11.91
		l1.28,24.54L317.73,267.71z"/>
	<polyline class="st55" points="459.65,138.18 378.93,184.77 254.93,112.67 133.19,184.87 	"/>
</g>
</svg>
